<?xml version="1.0" encoding="utf-8"?>
<!-- Generator: Adobe Illustrator 25.2.0, SVG Export Plug-In . SVG Version: 6.00 Build 0)  -->
<svg version="1.1" id="Layer_1" xmlns="http://www.w3.org/2000/svg" xmlns:xlink="http://www.w3.org/1999/xlink" x="0px" y="0px"
	 viewBox="0 0 1367.4 480" style="enable-background:new 0 0 1367.4 480;" xml:space="preserve">
<style type="text/css">
	.st0{fill-rule:evenodd;clip-rule:evenodd;fill:#44304E;}
</style>
<g>
	<g>
		<path class="st0" d="M1146.3,419.2c56.4-7.8,97.5-52.1,116.3-112.7c7.7-25.1,8.8-52.9,6.1-82c-5-51.9-28.8-97-63.6-129.9
			c-0.1-0.2-0.2-0.2-0.2-0.1c-0.1,0.2-0.4,0.3-0.6,0.4s-0.2,0-0.1,0.2c36.9,33.8,60.7,87.5,63.3,141.9c4,77.6-33.7,146.3-90.2,169.9
			c-9.5,4-19.4,7.1-29.7,8.6C1146.7,416.5,1146.3,417.8,1146.3,419.2"/>
		<path class="st0" d="M1287,289.7c-4.6,5.5-11.9,10.9-19.9,8.8c-0.4,0.6-2.5,3.7-2.8,4.1c-0.4,0.6-1,1.1-1.5,0.7
			c-0.3-0.2-0.6-0.7-0.2-1.4c1.1-1.4,2.3-2.9,3.6-4.4c2.3-12.3,5.7-20.5,12.8-28.8c8.2-9.5,16.6-13.8,21.8-15.6
			c0.8-0.2,1.5-0.4,2.2-0.6c0.5,4.8-1.7,11.7-3.4,15.7C1296.3,276.1,1292.6,283.2,1287,289.7"/>
		<path class="st0" d="M1219,116.2c0.7,0.3,4.5,1.3,5,0.5c0.2-0.2,0-1-0.4-1c-1.4-0.2-3-0.3-4.3-0.5c-2.5-7.8-9.4-11.2-15.7-12.5
			c-7.6-1.5-16,0.8-24.9,2.1c-0.4,0.1-1,0.1-1.4,0.2c0.1,0.3,0.4,0.5,0.6,0.8c3.8,5.1,9.6,9.8,15.4,12.1c3.8,1.6,8.4,2.5,13,2.4
			C1210.9,120,1214.9,118.9,1219,116.2"/>
		<path class="st0" d="M1204.2,94.9c-0.3,0.1-0.3,0-0.9-0.3c-1.1-1-2-1.6-3.1-2.6c-6.1,0-11.9-1.8-17.3-5.4c-2.4-1.6-4.8-3.6-6.9-6
			c-4.9-5.2-8.8-12.9-10.6-19.9c-0.1-0.4-0.2-0.7-0.2-1.1c0.5,0.2,0.9,0.4,1.3,0.6c9.9,3.9,19.4,5.8,27.3,13.4
			c5.4,5.1,8.2,11.3,7,17.3c1.2,1,2.5,1.9,3.6,3C1205.1,94.5,1204.5,94.9,1204.2,94.9"/>
		<path class="st0" d="M1240,148.9c0.7,0.4,4.4,2.3,4.9,1.6c0.2-0.2,0.1-1.1-0.2-1.2c-1.4-0.5-3-0.9-4.3-1.5
			c-0.5-5.5-3.6-10.7-9.7-14.2c-9.4-5-20-4.1-30.1-5c-0.5,0-1-0.1-1.4-0.1c0.2,0.3,0.3,0.6,0.4,0.9c3.4,5.8,8.7,12,14.3,15.6
			c3.7,2.5,8.3,4.4,12.8,5.3C1231.5,151.1,1235.6,150.6,1240,148.9"/>
		<path class="st0" d="M1289.1,234.1c-3.1,6.8-8.5,14.3-16.5,14.8c-0.3,0.7-1.7,4-1.9,4.5c-0.2,0.7-0.7,1.5-1.3,1.2
			c-0.3-0.1-0.6-0.5-0.5-1.2c0.8-1.8,1.7-3.3,2.6-5.1c-0.7-12.6,0-21.7,4.8-32.1c5.4-11.9,13-18.8,17.6-22.1
			c0.6-0.5,1.2-0.9,1.9-1.3c1.1,4.8,0.7,12.4,0.1,16.8C1294.6,218.4,1292.7,226.2,1289.1,234.1"/>
		<path class="st0" d="M1280.1,183.7c-1.3,7.3-4.6,14.7-11.9,17.8c-0.1,0.8-0.9,4.3-1,4.9c0,0.7-0.3,1.6-1,1.5
			c-0.2-0.1-0.7-0.2-0.8-1c0.3-1.9,0.9-4.1,1.2-6.2c-2.4-8.9-3.7-17-3.3-25.7c0.7-12.2,5.2-22.8,12.4-31.3c0.5-0.6,1-1.3,1.5-1.8
			c2,4.2,3.3,11.4,3.7,15.7C1281.7,166.3,1281.6,175.1,1280.1,183.7"/>
		<path class="st0" d="M1261.7,137.6c0.2,7.5-1.6,15.9-7.9,20.8c0.1,0.7,0.2,4.4,0.2,4.9c0.1,0.7,0.1,1.6-0.7,1.7
			c-0.3,0-0.7,0-0.9-0.8c-0.1-1.9-0.2-4.8-0.3-6.8c-5.4-9.1-8.2-19-8.4-30.4c-0.2-13.1,3.1-21.5,5.6-26.8c0.3-0.7,0.7-1.4,1-2.1
			c2.8,3.5,5.5,10,6.7,14.1C1259.7,120.5,1261.5,129,1261.7,137.6"/>
		<path class="st0" d="M1233.8,95.6c1.6,7,1.1,17.4-4.1,21.6c0.2,0.9,0.6,4.1,0.7,4.7c0.2,0.7,0.4,1.5-0.3,1.8
			c-0.3,0.1-0.4,0.1-0.7-0.6c-0.3-2-0.4-3.6-0.8-5.6c-7.5-8-11.8-15.9-14.1-26.7c-2.4-11.3-2.1-20.3-1-26.6c0.1-0.8,0.3-1.5,0.5-2.3
			c6.6,5.3,11.2,12.2,15.2,20.1C1231.4,86.4,1233.1,90.8,1233.8,95.6"/>
		<path class="st0" d="M1256.8,192c0.6,0.6,4,3.7,4.8,3.3c0.2-0.2,0.4-1.2,0-1.5c-1.3-1-2.9-1.8-4.2-2.7c0.4-6.1-1-12.2-6.5-18.1
			c-8.5-8.2-19.8-11-30.1-15.3c-0.5-0.2-0.9-0.5-1.4-0.7c0.1,0.4,0.2,0.7,0.3,1.1c2,7.1,6.1,15.4,11,20.9c3.2,3.8,7.5,7.3,12,9.7
			C1247.4,191.5,1251.9,192.3,1256.8,192"/>
		<path class="st0" d="M1263.9,241.5c0.5,0.8,3.1,5.2,4,4.9c0.3,0,0.7-1,0.4-1.5c-1.1-1.5-2.5-2.7-3.5-4.2
			c1.7-5.6,0.9-13.6-3.2-21.3c-6.6-11.2-16.2-16.7-25.6-24.6c-0.4-0.4-0.8-0.8-1.2-1.2c0,0.4-0.1,0.8,0,1.2
			c0.2,7.7,2.2,17.4,5.8,24.7c2.3,4.9,5.8,9.9,9.7,13.9C1254.4,237.7,1258.8,240.1,1263.9,241.5"/>
		<path class="st0" d="M1259.2,290.1c0.3,1,2.2,6.1,3.1,6.3c0.3,0,0.9-0.8,0.7-1.3c-0.8-1.7-1.6-3.7-2.3-5.5c3.1-3,4.2-11.3,1.7-20
			c-4.2-12.8-13.6-22.4-21.1-32.9c-0.4-0.5-0.7-1-1.1-1.5c-0.1,0.4-0.2,0.8-0.2,1.1c-1.3,7.4-1.2,17.3,0.8,25.4
			c1.4,5.4,3.7,11.3,6.8,16.4C1250.7,283.4,1254.5,287.1,1259.2,290.1"/>
		<path class="st0" d="M1270.6,346.9c-5.7,3.7-16,6.6-23,2c-0.5,0.4-3.5,2.2-3.8,2.5c-0.5,0.5-1.2,0.9-1.7,0.1
			c-0.2-0.3-0.4-0.8,0.1-1.4c1.4-1,3.1-1.7,4.7-2.7c5.4-11.2,11.2-18.7,20-24.3c10.1-6.5,18.6-6.6,24-6.6c0.8,0,1.5,0,2.3,0.1
			C1291.7,327.6,1278.1,342.2,1270.6,346.9"/>
		<path class="st0" d="M1242.4,338.3c0,0.7,0.4,3.9,0.9,5.8c0.2,0.5,0.2,1.4,1,1.1c0.3-0.1,0.6-0.7,0.6-1c-0.4-1.9-0.7-4-0.8-5.9
			c3.5-2.2,6.3-9.5,6.8-18.5c-0.6-13.5-6.7-25.8-11.5-38.5c-0.1-0.6-0.3-1.2-0.6-1.8c-0.2,0.3-0.3,0.6-0.5,0.9
			c-3.2,6.7-5.7,16.1-5.9,24.5c-0.2,5.5,0.6,12,2.2,17.9C1236.3,328.9,1238.8,333.7,1242.4,338.3"/>
		<path class="st0" d="M1239.5,393.1c-6.6,1.3-15.5,1-21.1-6.1c-1.4,0.2-3.7,0.6-5.1,0.7c-0.4,0-0.7-0.2-0.9-0.8
			c-0.1-0.4,0-0.8,0.7-1.2c1.6-0.4,3.3-0.3,5.1-0.7c7.4-8.7,14.4-13.5,24.5-15.4c11.7-2.1,21.6,0.9,26.8,3.1
			c0.7,0.3,1.5,0.6,2.1,0.9c-1.9,4.2-7.4,8.5-10.8,10.6C1254.2,388.7,1247.5,391.8,1239.5,393.1"/>
		<path class="st0" d="M1216,374.8c-0.1,0.8-0.2,3.8-0.2,5.8c0,0.5-0.1,1.3,0.7,1.3c0.4,0,0.7-0.4,0.8-0.8c0.1-1.9,0.1-3.9,0.4-5.8
			c3.9-1.2,9.1-7.1,11.5-15.3c2.7-13.1-0.3-26.6-1.7-40.4c-0.1-0.6-0.1-1.2-0.1-1.9c-0.2,0.3-0.6,0.5-0.8,0.7
			c-4.8,5.2-9.6,13.3-11.8,21.2c-1.6,5.2-2.4,11.6-2.4,17.7C1212.3,363.9,1213.6,369.3,1216,374.8"/>
		<path class="st0" d="M1179.1,401.5c-0.3,0.6-0.8,3.1-1.3,5c-0.1,0.4-0.4,1.1,0.2,1.4c0.3,0.1,0.8-0.1,0.9-0.4
			c0.7-1.6,0.7-3.3,1.4-5c3.8,0.9,10.4-3.9,14.7-10.2c6-10.8,6.6-23.6,8.9-36.5c0.1-0.6,0.2-1.2,0.4-1.8c-0.3,0.1-0.6,0.2-0.9,0.3
			c-5.7,2.9-12.3,8-16.5,14.3c-2.9,4.1-5.6,9.7-7.1,15.3C1178.4,389.9,1178.3,395.5,1179.1,401.5"/>
		<path class="st0" d="M1199.8,425.5c-6.7-0.9-15.5-4-19.3-12.6c-1.4-0.4-3.7-0.7-5.2-1.1c-0.4-0.1-0.6-0.5-0.7-1
			c0-0.3,0.2-0.8,0.9-0.9c1.7,0.2,3.3,0.8,5.2,1c9.8-5.8,17.7-8.4,27.9-6.9c11.8,1.7,20.4,7.6,25,11.4c0.7,0.6,1.3,1,1.9,1.6
			c-2.9,3.5-9.2,5.8-13,6.8C1215.3,425.9,1207.9,426.7,1199.8,425.5"/>
	</g>
	<g>
		<path class="st0" d="M221.2,419.2c-56.4-7.8-97.5-52.1-116.3-112.7c-7.7-25.1-8.8-52.9-6.1-82c5-51.9,28.8-97,63.6-129.9
			c0.1-0.2,0.2-0.2,0.2-0.1c0.1,0.2,0.4,0.3,0.6,0.4c0.2,0.1,0.3,0,0.1,0.2c-36.9,33.9-60.6,87.6-63.2,141.9
			c-4,77.6,33.7,146.3,90.2,169.9c9.5,4,19.4,7.1,29.7,8.6C220.7,416.5,221.2,417.8,221.2,419.2"/>
		<path class="st0" d="M80.5,289.7c4.6,5.5,11.9,10.9,19.8,8.8c0.4,0.6,2.5,3.7,2.8,4.1c0.4,0.6,1,1.1,1.5,0.7
			c0.3-0.2,0.6-0.7,0.3-1.4c-1.1-1.4-2.3-2.9-3.6-4.4c-2.3-12.3-5.7-20.5-12.8-28.8c-8.2-9.5-16.6-13.8-21.8-15.6
			c-0.8-0.2-1.5-0.4-2.2-0.6c-0.5,4.8,1.7,11.7,3.4,15.7C71.2,276.1,74.8,283.2,80.5,289.7"/>
		<path class="st0" d="M148.4,116.2c-0.6,0.3-4.5,1.3-5,0.5c-0.2-0.2,0.1-1,0.4-1c1.4-0.2,3-0.3,4.3-0.5c2.5-7.8,9.4-11.2,15.7-12.5
			c7.6-1.5,16,0.8,24.9,2.1c0.4,0.1,0.9,0.1,1.4,0.2c-0.1,0.3-0.4,0.5-0.6,0.8c-3.8,5.1-9.6,9.8-15.4,12.1c-3.8,1.6-8.5,2.5-13,2.4
			C156.6,120,152.5,118.9,148.4,116.2"/>
		<path class="st0" d="M163.2,94.9c0.3,0.1,0.3,0,0.9-0.3c1.1-1,2-1.6,3.1-2.6c6.1,0,11.9-1.8,17.3-5.4c2.4-1.6,4.8-3.6,6.9-6
			c4.9-5.2,8.8-12.9,10.6-19.9c0.1-0.4,0.2-0.7,0.2-1.1c-0.4,0.2-0.9,0.4-1.3,0.6c-9.8,3.9-19.3,5.8-27.3,13.4
			c-5.4,5.1-8.2,11.3-7,17.3c-1.2,1-2.5,1.9-3.7,3C162.3,94.5,162.9,94.9,163.2,94.9"/>
		<path class="st0" d="M127.5,148.9c-0.7,0.4-4.4,2.3-4.9,1.6c-0.2-0.2-0.1-1.1,0.2-1.2c1.4-0.5,3-0.9,4.3-1.5
			c0.5-5.5,3.6-10.7,9.7-14.2c9.4-5,20-4.1,30.1-5c0.5,0,1-0.1,1.4-0.1c-0.1,0.3-0.3,0.6-0.4,0.9c-3.4,5.8-8.8,12-14.3,15.6
			c-3.7,2.5-8.3,4.4-12.8,5.3C136,151.1,131.9,150.6,127.5,148.9"/>
		<path class="st0" d="M78.4,234.1c3.1,6.8,8.5,14.3,16.5,14.8c0.3,0.7,1.7,4,1.9,4.5c0.2,0.7,0.7,1.5,1.3,1.2
			c0.3-0.1,0.6-0.5,0.5-1.2c-0.8-1.8-1.7-3.3-2.6-5.1c0.7-12.6,0-21.7-4.8-32.1c-5.4-11.9-13-18.8-17.6-22.1
			c-0.6-0.5-1.2-0.9-1.9-1.3c-1,4.8-0.7,12.4-0.1,16.8C72.9,218.4,74.8,226.2,78.4,234.1"/>
		<path class="st0" d="M87.4,183.7c1.3,7.3,4.6,14.7,11.9,17.8c0.1,0.8,0.9,4.3,1,4.9c0,0.7,0.3,1.6,1,1.5c0.2-0.1,0.7-0.2,0.8-1
			c-0.3-1.9-0.9-4.1-1.2-6.2c2.4-8.9,3.8-17,3.3-25.7c-0.7-12.2-5.2-22.8-12.4-31.3c-0.5-0.6-1-1.3-1.5-1.8
			c-2,4.2-3.3,11.4-3.7,15.7C85.8,166.3,85.8,175.1,87.4,183.7"/>
		<path class="st0" d="M105.8,137.6c-0.2,7.5,1.6,15.9,7.9,20.8c0,0.7-0.2,4.4-0.2,4.9c-0.1,0.7,0,1.6,0.7,1.7c0.3,0,0.7,0,0.9-0.8
			c0.1-1.9,0.2-4.8,0.3-6.8c5.4-9.1,8.2-19,8.4-30.4c0.2-13.1-3.1-21.5-5.6-26.8c-0.3-0.7-0.7-1.4-1-2.1c-2.8,3.5-5.5,10-6.7,14.1
			C107.8,120.5,106,129,105.8,137.6"/>
		<path class="st0" d="M133.6,95.6c-1.6,7-1.2,17.4,4.1,21.6c-0.2,0.9-0.6,4.1-0.7,4.7c-0.2,0.7-0.4,1.5,0.2,1.8
			c0.3,0.1,0.4,0.1,0.7-0.6c0.3-2,0.4-3.6,0.8-5.6c7.5-8,11.8-15.9,14.1-26.7c2.4-11.3,2-20.3,1-26.6c-0.1-0.8-0.3-1.5-0.5-2.3
			c-6.6,5.3-11.2,12.2-15.2,20.1C136.1,86.4,134.4,90.8,133.6,95.6"/>
		<path class="st0" d="M110.7,192c-0.6,0.6-4,3.7-4.8,3.3c-0.2-0.2-0.4-1.2,0-1.5c1.3-1,2.9-1.8,4.2-2.7c-0.4-6.1,1-12.2,6.5-18.1
			c8.5-8.2,19.8-11,30.1-15.3c0.5-0.2,0.9-0.5,1.4-0.7c-0.1,0.4-0.2,0.7-0.3,1.1c-2,7.1-6.1,15.4-11,20.9c-3.2,3.8-7.5,7.3-12,9.7
			C120.1,191.5,115.6,192.3,110.7,192"/>
		<path class="st0" d="M103.6,241.5c-0.5,0.8-3.1,5.2-4,4.9c-0.3,0-0.7-1-0.4-1.5c1.1-1.5,2.5-2.7,3.5-4.2
			c-1.7-5.6-0.9-13.6,3.2-21.3c6.6-11.2,16.2-16.7,25.6-24.6c0.4-0.4,0.8-0.8,1.2-1.2c0,0.4,0.1,0.8,0,1.2
			c-0.2,7.7-2.2,17.4-5.8,24.7c-2.3,4.9-5.8,9.9-9.7,13.9C113,237.7,108.7,240.1,103.6,241.5"/>
		<path class="st0" d="M108.2,290.1c-0.3,1-2.2,6.1-3.1,6.3c-0.3,0-0.9-0.8-0.7-1.3c0.8-1.7,1.6-3.7,2.3-5.5c-3.1-3-4.2-11.3-1.7-20
			c4.2-12.8,13.6-22.4,21.1-32.9c0.4-0.5,0.7-1,1.1-1.5c0.1,0.4,0.2,0.8,0.2,1.1c1.3,7.4,1.2,17.3-0.8,25.4
			c-1.4,5.4-3.8,11.3-6.8,16.4C116.7,283.4,112.9,287.1,108.2,290.1"/>
		<path class="st0" d="M96.9,346.9c5.7,3.7,16,6.6,23,2c0.5,0.4,3.5,2.2,3.8,2.5c0.5,0.5,1.2,0.9,1.7,0.1c0.3-0.3,0.4-0.8-0.1-1.4
			c-1.5-1-3.1-1.7-4.7-2.7c-5.4-11.2-11.2-18.7-20-24.3c-10.1-6.5-18.6-6.6-24-6.6c-0.8,0-1.5,0-2.3,0.1
			C75.7,327.6,89.3,342.2,96.9,346.9"/>
		<path class="st0" d="M125,338.3c-0.1,0.7-0.4,3.9-0.9,5.8c-0.2,0.5-0.2,1.4-1,1.1c-0.3-0.1-0.6-0.7-0.6-1c0.4-1.9,0.7-4,0.8-5.9
			c-3.5-2.2-6.3-9.5-6.8-18.5c0.6-13.5,6.7-25.8,11.5-38.5c0.1-0.6,0.3-1.2,0.6-1.8c0.2,0.3,0.3,0.6,0.5,0.9
			c3.2,6.7,5.7,16.1,5.9,24.5c0.2,5.5-0.6,12-2.2,17.9C131.2,328.9,128.7,333.7,125,338.3"/>
		<path class="st0" d="M128,393.1c6.6,1.3,15.5,1,21.1-6.1c1.4,0.2,3.7,0.6,5.1,0.7c0.4,0,0.7-0.2,0.9-0.8c0.1-0.4,0-0.8-0.7-1.2
			c-1.7-0.4-3.3-0.3-5.1-0.7c-7.4-8.7-14.4-13.5-24.5-15.4c-11.7-2.1-21.6,0.9-26.8,3.1c-0.7,0.3-1.5,0.6-2.1,0.9
			c1.9,4.2,7.4,8.5,10.8,10.6C113.2,388.7,120,391.8,128,393.1"/>
		<path class="st0" d="M151.5,374.8c0.1,0.8,0.2,3.8,0.2,5.8c0,0.5,0.1,1.3-0.7,1.3c-0.4,0-0.7-0.4-0.8-0.8c-0.1-1.9,0-3.9-0.4-5.8
			c-3.9-1.2-9.1-7.1-11.5-15.3c-2.7-13.1,0.3-26.6,1.7-40.4c0.1-0.6,0.1-1.2,0.1-1.9c0.2,0.3,0.6,0.5,0.8,0.7
			c4.8,5.2,9.5,13.3,11.8,21.2c1.6,5.2,2.4,11.6,2.4,17.7C155.1,363.9,153.8,369.3,151.5,374.8"/>
		<path class="st0" d="M188.4,401.5c0.3,0.6,0.8,3.1,1.3,5c0.1,0.4,0.4,1.1-0.2,1.4c-0.4,0.1-0.8-0.1-0.9-0.4
			c-0.7-1.6-0.7-3.3-1.5-5c-3.8,0.9-10.4-3.9-14.7-10.2c-6-10.8-6.6-23.6-8.9-36.5c-0.1-0.6-0.2-1.2-0.4-1.8
			c0.3,0.1,0.6,0.2,0.9,0.3c5.7,2.9,12.3,8,16.5,14.3c2.9,4.1,5.6,9.7,7.1,15.3C189.1,389.9,189.2,395.5,188.4,401.5"/>
		<path class="st0" d="M167.7,425.5c6.7-0.9,15.5-4,19.3-12.6c1.3-0.4,3.7-0.7,5.2-1.1c0.4-0.1,0.6-0.5,0.7-1c0-0.3-0.2-0.8-0.9-0.9
			c-1.7,0.2-3.3,0.8-5.2,1c-9.8-5.8-17.7-8.4-28-6.9c-11.8,1.7-20.4,7.6-25,11.4c-0.7,0.6-1.3,1-1.9,1.6c2.9,3.5,9.2,5.8,13,6.8
			C152.2,425.9,159.5,426.7,167.7,425.5"/>
	</g>
</g>
</svg>
