<?xml version="1.0" encoding="utf-8"?>
<!-- Generator: Adobe Illustrator 21.1.0, SVG Export Plug-In . SVG Version: 6.00 Build 0)  -->
<svg version="1.1" id="Layer_1" xmlns="http://www.w3.org/2000/svg" xmlns:xlink="http://www.w3.org/1999/xlink" x="0px" y="0px"
	 viewBox="0 0 821.1 480" enable-background="new 0 0 821.1 480" xml:space="preserve">
<g>
	<g>
		<path fill-rule="evenodd" clip-rule="evenodd" fill="#1E1814" d="M603.1,419.2c56.4-7.8,97.5-52.1,116.3-112.7
			c7.7-25.1,8.8-52.9,6.1-82c-5-51.9-28.8-97-63.6-129.9c-0.1-0.2-0.2-0.2-0.2-0.1c-0.1,0.2-0.4,0.3-0.6,0.4c-0.2,0.1-0.2,0-0.1,0.2
			c36.9,33.8,60.7,87.5,63.3,141.9c4,77.6-33.7,146.3-90.2,169.9c-9.5,4-19.4,7.1-29.7,8.6C603.5,416.5,603.1,417.8,603.1,419.2"/>
		<path fill-rule="evenodd" clip-rule="evenodd" fill="#1E1814" d="M743.8,289.7c-4.6,5.5-11.9,10.9-19.9,8.8
			c-0.4,0.6-2.5,3.7-2.8,4.1c-0.4,0.6-1,1.1-1.5,0.7c-0.3-0.2-0.6-0.7-0.2-1.4c1.1-1.4,2.3-2.9,3.6-4.4c2.3-12.3,5.7-20.5,12.8-28.8
			c8.2-9.5,16.6-13.8,21.8-15.6c0.8-0.2,1.5-0.4,2.2-0.6c0.5,4.8-1.7,11.7-3.4,15.7C753.1,276.1,749.4,283.2,743.8,289.7"/>
		<path fill-rule="evenodd" clip-rule="evenodd" fill="#1E1814" d="M675.8,116.2c0.7,0.3,4.5,1.3,5,0.5c0.2-0.2,0-1-0.4-1
			c-1.4-0.2-3-0.3-4.3-0.5c-2.5-7.8-9.4-11.2-15.7-12.5c-7.6-1.5-16,0.8-24.9,2.1c-0.4,0.1-1,0.1-1.4,0.2c0.1,0.3,0.4,0.5,0.6,0.8
			c3.8,5.1,9.6,9.8,15.4,12.1c3.8,1.6,8.4,2.5,13,2.4C667.7,120,671.7,118.9,675.8,116.2"/>
		<path fill-rule="evenodd" clip-rule="evenodd" fill="#1E1814" d="M661,94.9c-0.3,0.1-0.3,0-0.9-0.3c-1.1-1-2-1.6-3.1-2.6
			c-6.1,0-11.9-1.8-17.3-5.4c-2.4-1.6-4.8-3.6-6.9-6c-4.9-5.2-8.8-12.9-10.6-19.9c-0.1-0.4-0.2-0.7-0.2-1.1c0.5,0.2,0.9,0.4,1.3,0.6
			c9.9,3.9,19.4,5.8,27.3,13.4c5.4,5.1,8.2,11.3,7,17.3c1.2,1,2.5,1.9,3.6,3C661.9,94.5,661.3,94.9,661,94.9"/>
		<path fill-rule="evenodd" clip-rule="evenodd" fill="#1E1814" d="M696.8,148.9c0.7,0.4,4.4,2.3,4.9,1.6c0.2-0.2,0.1-1.1-0.2-1.2
			c-1.4-0.5-3-0.9-4.3-1.5c-0.5-5.5-3.6-10.7-9.7-14.2c-9.4-5-20-4.1-30.1-5c-0.5,0-1-0.1-1.4-0.1c0.2,0.3,0.3,0.6,0.4,0.9
			c3.4,5.8,8.7,12,14.3,15.6c3.7,2.5,8.3,4.4,12.8,5.3C688.3,151.1,692.4,150.6,696.8,148.9"/>
		<path fill-rule="evenodd" clip-rule="evenodd" fill="#1E1814" d="M745.9,234.1c-3.1,6.8-8.5,14.3-16.5,14.8
			c-0.3,0.7-1.7,4-1.9,4.5c-0.2,0.7-0.7,1.5-1.3,1.2c-0.3-0.1-0.6-0.5-0.5-1.2c0.8-1.8,1.7-3.3,2.6-5.1c-0.7-12.6,0-21.7,4.8-32.1
			c5.4-11.9,13-18.8,17.6-22.1c0.6-0.5,1.2-0.9,1.9-1.3c1.1,4.8,0.7,12.4,0.1,16.8C751.4,218.4,749.5,226.2,745.9,234.1"/>
		<path fill-rule="evenodd" clip-rule="evenodd" fill="#1E1814" d="M736.9,183.7c-1.3,7.3-4.6,14.7-11.9,17.8
			c-0.1,0.8-0.9,4.3-1,4.9c0,0.7-0.3,1.6-1,1.5c-0.2-0.1-0.7-0.2-0.8-1c0.3-1.9,0.9-4.1,1.2-6.2c-2.4-8.9-3.7-17-3.3-25.7
			c0.7-12.2,5.2-22.8,12.4-31.3c0.5-0.6,1-1.3,1.5-1.8c2,4.2,3.3,11.4,3.7,15.7C738.5,166.3,738.4,175.1,736.9,183.7"/>
		<path fill-rule="evenodd" clip-rule="evenodd" fill="#1E1814" d="M718.5,137.6c0.2,7.5-1.6,15.9-7.9,20.8c0.1,0.7,0.2,4.4,0.2,4.9
			c0.1,0.7,0.1,1.6-0.7,1.7c-0.3,0-0.7,0-0.9-0.8c-0.1-1.9-0.2-4.8-0.3-6.8c-5.4-9.1-8.2-19-8.4-30.4c-0.2-13.1,3.1-21.5,5.6-26.8
			c0.3-0.7,0.7-1.4,1-2.1c2.8,3.5,5.5,10,6.7,14.1C716.5,120.5,718.3,129,718.5,137.6"/>
		<path fill-rule="evenodd" clip-rule="evenodd" fill="#1E1814" d="M690.6,95.6c1.6,7,1.1,17.4-4.1,21.6c0.2,0.9,0.6,4.1,0.7,4.7
			c0.2,0.7,0.4,1.5-0.3,1.8c-0.3,0.1-0.4,0.1-0.7-0.6c-0.3-2-0.4-3.6-0.8-5.6c-7.5-8-11.8-15.9-14.1-26.7c-2.4-11.3-2.1-20.3-1-26.6
			c0.1-0.8,0.3-1.5,0.5-2.3c6.6,5.3,11.2,12.2,15.2,20.1C688.2,86.4,689.9,90.8,690.6,95.6"/>
		<path fill-rule="evenodd" clip-rule="evenodd" fill="#1E1814" d="M713.6,192c0.6,0.6,4,3.7,4.8,3.3c0.2-0.2,0.4-1.2,0-1.5
			c-1.3-1-2.9-1.8-4.2-2.7c0.4-6.1-1-12.2-6.5-18.1c-8.5-8.2-19.8-11-30.1-15.3c-0.5-0.2-0.9-0.5-1.4-0.7c0.1,0.4,0.2,0.7,0.3,1.1
			c2,7.1,6.1,15.4,11,20.9c3.2,3.8,7.5,7.3,12,9.7C704.2,191.5,708.7,192.3,713.6,192"/>
		<path fill-rule="evenodd" clip-rule="evenodd" fill="#1E1814" d="M720.7,241.5c0.5,0.8,3.1,5.2,4,4.9c0.3,0,0.7-1,0.4-1.5
			c-1.1-1.5-2.5-2.7-3.5-4.2c1.7-5.6,0.9-13.6-3.2-21.3c-6.6-11.2-16.2-16.7-25.6-24.6c-0.4-0.4-0.8-0.8-1.2-1.2
			c0,0.4-0.1,0.8,0,1.2c0.2,7.7,2.2,17.4,5.8,24.7c2.3,4.9,5.8,9.9,9.7,13.9C711.2,237.7,715.6,240.1,720.7,241.5"/>
		<path fill-rule="evenodd" clip-rule="evenodd" fill="#1E1814" d="M716,290.1c0.3,1,2.2,6.1,3.1,6.3c0.3,0,0.9-0.8,0.7-1.3
			c-0.8-1.7-1.6-3.7-2.3-5.5c3.1-3,4.2-11.3,1.7-20c-4.2-12.8-13.6-22.4-21.1-32.9c-0.4-0.5-0.7-1-1.1-1.5c-0.1,0.4-0.2,0.8-0.2,1.1
			c-1.3,7.4-1.2,17.3,0.8,25.4c1.4,5.4,3.7,11.3,6.8,16.4C707.5,283.4,711.3,287.1,716,290.1"/>
		<path fill-rule="evenodd" clip-rule="evenodd" fill="#1E1814" d="M727.4,346.9c-5.7,3.7-16,6.6-23,2c-0.5,0.4-3.5,2.2-3.8,2.5
			c-0.5,0.5-1.2,0.9-1.7,0.1c-0.2-0.3-0.4-0.8,0.1-1.4c1.4-1,3.1-1.7,4.7-2.7c5.4-11.2,11.2-18.7,20-24.3c10.1-6.5,18.6-6.6,24-6.6
			c0.8,0,1.5,0,2.3,0.1C748.5,327.6,734.9,342.2,727.4,346.9"/>
		<path fill-rule="evenodd" clip-rule="evenodd" fill="#1E1814" d="M699.2,338.3c0,0.7,0.4,3.9,0.9,5.8c0.2,0.5,0.2,1.4,1,1.1
			c0.3-0.1,0.6-0.7,0.6-1c-0.4-1.9-0.7-4-0.8-5.9c3.5-2.2,6.3-9.5,6.8-18.5c-0.6-13.5-6.7-25.8-11.5-38.5c-0.1-0.6-0.3-1.2-0.6-1.8
			c-0.2,0.3-0.3,0.6-0.5,0.9c-3.2,6.7-5.7,16.1-5.9,24.5c-0.2,5.5,0.6,12,2.2,17.9C693.1,328.9,695.6,333.7,699.2,338.3"/>
		<path fill-rule="evenodd" clip-rule="evenodd" fill="#1E1814" d="M696.3,393.1c-6.6,1.3-15.5,1-21.1-6.1c-1.4,0.2-3.7,0.6-5.1,0.7
			c-0.4,0-0.7-0.2-0.9-0.8c-0.1-0.4,0-0.8,0.7-1.2c1.6-0.4,3.3-0.3,5.1-0.7c7.4-8.7,14.4-13.5,24.5-15.4c11.7-2.1,21.6,0.9,26.8,3.1
			c0.7,0.3,1.5,0.6,2.1,0.9c-1.9,4.2-7.4,8.5-10.8,10.6C711,388.7,704.3,391.8,696.3,393.1"/>
		<path fill-rule="evenodd" clip-rule="evenodd" fill="#1E1814" d="M672.8,374.8c-0.1,0.8-0.2,3.8-0.2,5.8c0,0.5-0.1,1.3,0.7,1.3
			c0.4,0,0.7-0.4,0.8-0.8c0.1-1.9,0.1-3.9,0.4-5.8c3.9-1.2,9.1-7.1,11.5-15.3c2.7-13.1-0.3-26.6-1.7-40.4c-0.1-0.6-0.1-1.2-0.1-1.9
			c-0.2,0.3-0.6,0.5-0.8,0.7c-4.8,5.2-9.6,13.3-11.8,21.2c-1.6,5.2-2.4,11.6-2.4,17.7C669.1,363.9,670.4,369.3,672.8,374.8"/>
		<path fill-rule="evenodd" clip-rule="evenodd" fill="#1E1814" d="M635.9,401.5c-0.3,0.6-0.8,3.1-1.3,5c-0.1,0.4-0.4,1.1,0.2,1.4
			c0.3,0.1,0.8-0.1,0.9-0.4c0.7-1.6,0.7-3.3,1.4-5c3.8,0.9,10.4-3.9,14.7-10.2c6-10.8,6.6-23.6,8.9-36.5c0.1-0.6,0.2-1.2,0.4-1.8
			c-0.3,0.1-0.6,0.2-0.9,0.3c-5.7,2.9-12.3,8-16.5,14.3c-2.9,4.1-5.6,9.7-7.1,15.3C635.2,389.9,635.1,395.5,635.9,401.5"/>
		<path fill-rule="evenodd" clip-rule="evenodd" fill="#1E1814" d="M656.6,425.5c-6.7-0.9-15.5-4-19.3-12.6
			c-1.4-0.4-3.7-0.7-5.2-1.1c-0.4-0.1-0.6-0.5-0.7-1c0-0.3,0.2-0.8,0.9-0.9c1.7,0.2,3.3,0.8,5.2,1c9.8-5.8,17.7-8.4,27.9-6.9
			c11.8,1.7,20.4,7.6,25,11.4c0.7,0.6,1.3,1,1.9,1.6c-2.9,3.5-9.2,5.8-13,6.8C672.1,425.9,664.7,426.7,656.6,425.5"/>
	</g>
	<g>
		<path fill-rule="evenodd" clip-rule="evenodd" fill="#1E1814" d="M218,419.2c-56.4-7.8-97.5-52.1-116.3-112.7
			c-7.7-25.1-8.8-52.9-6.1-82c5-51.9,28.8-97,63.6-129.9c0.1-0.2,0.2-0.2,0.2-0.1c0.1,0.2,0.4,0.3,0.6,0.4c0.2,0.1,0.3,0,0.1,0.2
			C123.2,129,99.5,182.7,96.9,237c-4,77.6,33.7,146.3,90.2,169.9c9.5,4,19.4,7.1,29.7,8.6C217.5,416.5,218,417.8,218,419.2"/>
		<path fill-rule="evenodd" clip-rule="evenodd" fill="#1E1814" d="M77.3,289.7c4.6,5.5,11.9,10.9,19.8,8.8c0.4,0.6,2.5,3.7,2.8,4.1
			c0.4,0.6,1,1.1,1.5,0.7c0.3-0.2,0.6-0.7,0.3-1.4c-1.1-1.4-2.3-2.9-3.6-4.4c-2.3-12.3-5.7-20.5-12.8-28.8
			c-8.2-9.5-16.6-13.8-21.8-15.6c-0.8-0.2-1.5-0.4-2.2-0.6c-0.5,4.8,1.7,11.7,3.4,15.7C68,276.1,71.6,283.2,77.3,289.7"/>
		<path fill-rule="evenodd" clip-rule="evenodd" fill="#1E1814" d="M145.2,116.2c-0.6,0.3-4.5,1.3-5,0.5c-0.2-0.2,0.1-1,0.4-1
			c1.4-0.2,3-0.3,4.3-0.5c2.5-7.8,9.4-11.2,15.7-12.5c7.6-1.5,16,0.8,24.9,2.1c0.4,0.1,0.9,0.1,1.4,0.2c-0.1,0.3-0.4,0.5-0.6,0.8
			c-3.8,5.1-9.6,9.8-15.4,12.1c-3.8,1.6-8.5,2.5-13,2.4C153.4,120,149.3,118.9,145.2,116.2"/>
		<path fill-rule="evenodd" clip-rule="evenodd" fill="#1E1814" d="M160,94.9c0.3,0.1,0.3,0,0.9-0.3c1.1-1,2-1.6,3.1-2.6
			c6.1,0,11.9-1.8,17.3-5.4c2.4-1.6,4.8-3.6,6.9-6c4.9-5.2,8.8-12.9,10.6-19.9c0.1-0.4,0.2-0.7,0.2-1.1c-0.4,0.2-0.9,0.4-1.3,0.6
			c-9.8,3.9-19.3,5.8-27.3,13.4c-5.4,5.1-8.2,11.3-7,17.3c-1.2,1-2.5,1.9-3.7,3C159.1,94.5,159.7,94.9,160,94.9"/>
		<path fill-rule="evenodd" clip-rule="evenodd" fill="#1E1814" d="M124.3,148.9c-0.7,0.4-4.4,2.3-4.9,1.6c-0.2-0.2-0.1-1.1,0.2-1.2
			c1.4-0.5,3-0.9,4.3-1.5c0.5-5.5,3.6-10.7,9.7-14.2c9.4-5,20-4.1,30.1-5c0.5,0,1-0.1,1.4-0.1c-0.1,0.3-0.3,0.6-0.4,0.9
			c-3.4,5.8-8.8,12-14.3,15.6c-3.7,2.5-8.3,4.4-12.8,5.3C132.8,151.1,128.7,150.6,124.3,148.9"/>
		<path fill-rule="evenodd" clip-rule="evenodd" fill="#1E1814" d="M75.2,234.1c3.1,6.8,8.5,14.3,16.5,14.8c0.3,0.7,1.7,4,1.9,4.5
			c0.2,0.7,0.7,1.5,1.3,1.2c0.3-0.1,0.6-0.5,0.5-1.2c-0.8-1.8-1.7-3.3-2.6-5.1c0.7-12.6,0-21.7-4.8-32.1
			c-5.4-11.9-13-18.8-17.6-22.1c-0.6-0.5-1.2-0.9-1.9-1.3c-1,4.8-0.7,12.4-0.1,16.8C69.7,218.4,71.6,226.2,75.2,234.1"/>
		<path fill-rule="evenodd" clip-rule="evenodd" fill="#1E1814" d="M84.2,183.7c1.3,7.3,4.6,14.7,11.9,17.8c0.1,0.8,0.9,4.3,1,4.9
			c0,0.7,0.3,1.6,1,1.5c0.2-0.1,0.7-0.2,0.8-1c-0.3-1.9-0.9-4.1-1.2-6.2c2.4-8.9,3.8-17,3.3-25.7c-0.7-12.2-5.2-22.8-12.4-31.3
			c-0.5-0.6-1-1.3-1.5-1.8c-2,4.2-3.3,11.4-3.7,15.7C82.6,166.3,82.6,175.1,84.2,183.7"/>
		<path fill-rule="evenodd" clip-rule="evenodd" fill="#1E1814" d="M102.6,137.6c-0.2,7.5,1.6,15.9,7.9,20.8c0,0.7-0.2,4.4-0.2,4.9
			c-0.1,0.7,0,1.6,0.7,1.7c0.3,0,0.7,0,0.9-0.8c0.1-1.9,0.2-4.8,0.3-6.8c5.4-9.1,8.2-19,8.4-30.4c0.2-13.1-3.1-21.5-5.6-26.8
			c-0.3-0.7-0.7-1.4-1-2.1c-2.8,3.5-5.5,10-6.7,14.1C104.6,120.5,102.8,129,102.6,137.6"/>
		<path fill-rule="evenodd" clip-rule="evenodd" fill="#1E1814" d="M130.4,95.6c-1.6,7-1.2,17.4,4.1,21.6c-0.2,0.9-0.6,4.1-0.7,4.7
			c-0.2,0.7-0.4,1.5,0.2,1.8c0.3,0.1,0.4,0.1,0.7-0.6c0.3-2,0.4-3.6,0.8-5.6c7.5-8,11.8-15.9,14.1-26.7c2.4-11.3,2-20.3,1-26.6
			c-0.1-0.8-0.3-1.5-0.5-2.3c-6.6,5.3-11.2,12.2-15.2,20.1C132.9,86.4,131.2,90.8,130.4,95.6"/>
		<path fill-rule="evenodd" clip-rule="evenodd" fill="#1E1814" d="M107.5,192c-0.6,0.6-4,3.7-4.8,3.3c-0.2-0.2-0.4-1.2,0-1.5
			c1.3-1,2.9-1.8,4.2-2.7c-0.4-6.1,1-12.2,6.5-18.1c8.5-8.2,19.8-11,30.1-15.3c0.5-0.2,0.9-0.5,1.4-0.7c-0.1,0.4-0.2,0.7-0.3,1.1
			c-2,7.1-6.1,15.4-11,20.9c-3.2,3.8-7.5,7.3-12,9.7C116.9,191.5,112.4,192.3,107.5,192"/>
		<path fill-rule="evenodd" clip-rule="evenodd" fill="#1E1814" d="M100.4,241.5c-0.5,0.8-3.1,5.2-4,4.9c-0.3,0-0.7-1-0.4-1.5
			c1.1-1.5,2.5-2.7,3.5-4.2c-1.7-5.6-0.9-13.6,3.2-21.3c6.6-11.2,16.2-16.7,25.6-24.6c0.4-0.4,0.8-0.8,1.2-1.2c0,0.4,0.1,0.8,0,1.2
			c-0.2,7.7-2.2,17.4-5.8,24.7c-2.3,4.9-5.8,9.9-9.7,13.9C109.8,237.7,105.5,240.1,100.4,241.5"/>
		<path fill-rule="evenodd" clip-rule="evenodd" fill="#1E1814" d="M105,290.1c-0.3,1-2.2,6.1-3.1,6.3c-0.3,0-0.9-0.8-0.7-1.3
			c0.8-1.7,1.6-3.7,2.3-5.5c-3.1-3-4.2-11.3-1.7-20c4.2-12.8,13.6-22.4,21.1-32.9c0.4-0.5,0.7-1,1.1-1.5c0.1,0.4,0.2,0.8,0.2,1.1
			c1.3,7.4,1.2,17.3-0.8,25.4c-1.4,5.4-3.8,11.3-6.8,16.4C113.5,283.4,109.7,287.1,105,290.1"/>
		<path fill-rule="evenodd" clip-rule="evenodd" fill="#1E1814" d="M93.7,346.9c5.7,3.7,16,6.6,23,2c0.5,0.4,3.5,2.2,3.8,2.5
			c0.5,0.5,1.2,0.9,1.7,0.1c0.3-0.3,0.4-0.8-0.1-1.4c-1.5-1-3.1-1.7-4.7-2.7c-5.4-11.2-11.2-18.7-20-24.3c-10.1-6.5-18.6-6.6-24-6.6
			c-0.8,0-1.5,0-2.3,0.1C72.5,327.6,86.1,342.2,93.7,346.9"/>
		<path fill-rule="evenodd" clip-rule="evenodd" fill="#1E1814" d="M121.8,338.3c-0.1,0.7-0.4,3.9-0.9,5.8c-0.2,0.5-0.2,1.4-1,1.1
			c-0.3-0.1-0.6-0.7-0.6-1c0.4-1.9,0.7-4,0.8-5.9c-3.5-2.2-6.3-9.5-6.8-18.5c0.6-13.5,6.7-25.8,11.5-38.5c0.1-0.6,0.3-1.2,0.6-1.8
			c0.2,0.3,0.3,0.6,0.5,0.9c3.2,6.7,5.7,16.1,5.9,24.5c0.2,5.5-0.6,12-2.2,17.9C128,328.9,125.5,333.7,121.8,338.3"/>
		<path fill-rule="evenodd" clip-rule="evenodd" fill="#1E1814" d="M124.8,393.1c6.6,1.3,15.5,1,21.1-6.1c1.4,0.2,3.7,0.6,5.1,0.7
			c0.4,0,0.7-0.2,0.9-0.8c0.1-0.4,0-0.8-0.7-1.2c-1.7-0.4-3.3-0.3-5.1-0.7c-7.4-8.7-14.4-13.5-24.5-15.4
			c-11.7-2.1-21.6,0.9-26.8,3.1c-0.7,0.3-1.5,0.6-2.1,0.9c1.9,4.2,7.4,8.5,10.8,10.6C110,388.7,116.8,391.8,124.8,393.1"/>
		<path fill-rule="evenodd" clip-rule="evenodd" fill="#1E1814" d="M148.3,374.8c0.1,0.8,0.2,3.8,0.2,5.8c0,0.5,0.1,1.3-0.7,1.3
			c-0.4,0-0.7-0.4-0.8-0.8c-0.1-1.9,0-3.9-0.4-5.8c-3.9-1.2-9.1-7.1-11.5-15.3c-2.7-13.1,0.3-26.6,1.7-40.4c0.1-0.6,0.1-1.2,0.1-1.9
			c0.2,0.3,0.6,0.5,0.8,0.7c4.8,5.2,9.5,13.3,11.8,21.2c1.6,5.2,2.4,11.6,2.4,17.7C151.9,363.9,150.6,369.3,148.3,374.8"/>
		<path fill-rule="evenodd" clip-rule="evenodd" fill="#1E1814" d="M185.2,401.5c0.3,0.6,0.8,3.1,1.3,5c0.1,0.4,0.4,1.1-0.2,1.4
			c-0.4,0.1-0.8-0.1-0.9-0.4c-0.7-1.6-0.7-3.3-1.5-5c-3.8,0.9-10.4-3.9-14.7-10.2c-6-10.8-6.6-23.6-8.9-36.5
			c-0.1-0.6-0.2-1.2-0.4-1.8c0.3,0.1,0.6,0.2,0.9,0.3c5.7,2.9,12.3,8,16.5,14.3c2.9,4.1,5.6,9.7,7.1,15.3
			C185.9,389.9,186,395.5,185.2,401.5"/>
		<path fill-rule="evenodd" clip-rule="evenodd" fill="#1E1814" d="M164.5,425.5c6.7-0.9,15.5-4,19.3-12.6c1.3-0.4,3.7-0.7,5.2-1.1
			c0.4-0.1,0.6-0.5,0.7-1c0-0.3-0.2-0.8-0.9-0.9c-1.7,0.2-3.3,0.8-5.2,1c-9.8-5.8-17.7-8.4-28-6.9c-11.8,1.7-20.4,7.6-25,11.4
			c-0.7,0.6-1.3,1-1.9,1.6c2.9,3.5,9.2,5.8,13,6.8C149,425.9,156.3,426.7,164.5,425.5"/>
	</g>
</g>
</svg>
