<?xml version="1.0" encoding="utf-8"?>
<!-- Generator: Adobe Illustrator 21.1.0, SVG Export Plug-In . SVG Version: 6.00 Build 0)  -->
<svg version="1.1" id="Layer_1" xmlns="http://www.w3.org/2000/svg" xmlns:xlink="http://www.w3.org/1999/xlink" x="0px" y="0px"
	 viewBox="0 0 98.1 52.7" style="enable-background:new 0 0 98.1 52.7;" xml:space="preserve">
<style type="text/css">
	.st0{fill:#1F1A0C;}
	.st1{fill:url(#SVGID_1_);}
	.st2{fill:url(#SVGID_2_);}
	.st3{fill:url(#SVGID_3_);}
	.st4{fill:url(#SVGID_4_);}
	.st5{fill:url(#SVGID_5_);}
	.st6{fill:url(#SVGID_6_);}
	.st7{fill:url(#SVGID_7_);}
</style>
<g>
	<path class="st0" d="M95.7,38.7L79.7,6.6c-1.8-3.4-4.5-5.7-7.5-6c-0.4-0.1-0.7-0.1-1-0.1h-7.4c-0.6,0-1.2,0.1-1.8,0.2
		c-2.4,0.6-4.5,2.3-6.1,4.8c-0.1,0.2-0.2,0.3-0.3,0.5L49,19.2l-6.5-13c-0.1-0.2-0.2-0.3-0.3-0.5c-1.6-2.5-3.6-4.2-6.1-4.8
		c-0.5-0.2-1.1-0.3-1.8-0.3h-7.5c-0.3,0-0.6,0-0.9,0.1c-3,0.4-5.8,2.5-7.5,6L2.4,38.7c-1.5,2.9-1.8,6-0.9,8.4c0.8,2.8,3.3,5,6.5,5
		h9.2c2.5,0,4.8-1.5,6-3.7l1.4-3c-3.2,0-16,0-16,0l0,0c-1.9,0.1-0.9-2.3-0.1-3.8l16-32c0.7-1.4,1.7-2.4,2.4-2.4h7.6
		c0.7,0.1,1.5,0.9,2.1,1.9l11,21.8c0.4,0.9,1,1.3,1.6,1.3c0.6,0,1.1-0.4,1.6-1.3l11-21.9C62.2,8,63,7.3,63.6,7.2l0,0h7.5l0,0
		c0.8,0,1.8,1,2.4,2.4l16.2,32.1c0.7,1.5,2,3.8,0,3.8c0,0-14.1,0-16.1,0l1.4,3c1.2,2.3,3.4,3.7,6,3.7h9.1c3.1,0,5.7-2.2,6.5-5
		C97.5,44.7,97.2,41.7,95.7,38.7z"/>
	<g>
		<g>
			<linearGradient id="SVGID_1_" gradientUnits="userSpaceOnUse" x1="73.8113" y1="14.1607" x2="84.0969" y2="37.7931">
				<stop  offset="0.1428" style="stop-color:#B8B8B8"/>
				<stop  offset="0.6263" style="stop-color:#1F1A0C"/>
			</linearGradient>
			<path class="st1" d="M70.6,7.2h0.3C70.7,7.2,70.6,7.2,70.6,7.2z"/>
			<linearGradient id="SVGID_2_" gradientUnits="userSpaceOnUse" x1="74.0462" y1="14.0585" x2="84.3318" y2="37.6909">
				<stop  offset="0.1428" style="stop-color:#B8B8B8"/>
				<stop  offset="0.6263" style="stop-color:#1F1A0C"/>
			</linearGradient>
			<path class="st2" d="M70.9,7.2c0.1,0,0.2,0,0.3,0c0,0,0,0-0.1,0H70.9z"/>
			<linearGradient id="SVGID_3_" gradientUnits="userSpaceOnUse" x1="76.9433" y1="12.7976" x2="87.2289" y2="36.43">
				<stop  offset="0.1428" style="stop-color:#B8B8B8"/>
				<stop  offset="0.6263" style="stop-color:#1F1A0C"/>
			</linearGradient>
			<path class="st3" d="M87.5,35.8c-0.7-2.6-0.4-3.4-0.2-4c0.3-1.1,0-3.1-0.6-4.1c-2.2-4.4-8.1-15.8-8.7-16.9
				c-1.6-3.1-5.4-3.5-6.8-3.6c0.8,0.1,1.7,1,2.4,2.3l14.5,28.8c0-0.2,0-0.4,0-0.5C87.9,37.1,87.7,36.5,87.5,35.8z"/>
		</g>
	</g>
	<g>
		
			<linearGradient id="SVGID_4_" gradientUnits="userSpaceOnUse" x1="99.0672" y1="603.2518" x2="74.079" y2="605.942" gradientTransform="matrix(1 0 0 1 0 -558)">
			<stop  offset="4.669190e-02" style="stop-color:#B3B3B3"/>
			<stop  offset="1" style="stop-color:#000000"/>
		</linearGradient>
		<path class="st4" d="M90.5,43.4c0.4,1.1,0.5,2-0.8,2c0,0-14.1,0-16.1,0l1.4,3c0.1,0.2,0.3,0.5,0.4,0.7c3.2,0,12.3-0.1,14.9-0.2
			C93.5,48.7,90.5,43.4,90.5,43.4z"/>
	</g>
	<g>
		<g>
			
				<linearGradient id="SVGID_5_" gradientUnits="userSpaceOnUse" x1="24.5212" y1="12.7988" x2="34.8013" y2="36.4186" gradientTransform="matrix(-1 0 0 1 45.6683 0)">
				<stop  offset="0.1428" style="stop-color:#B8B8B8"/>
				<stop  offset="0.6263" style="stop-color:#1F1A0C"/>
			</linearGradient>
			<path class="st5" d="M10.6,35.8c0.7-2.6,0.4-3.4,0.2-4c-0.3-1.1,0-3.1,0.6-4.1c2.2-4.4,8.1-15.8,8.7-16.9
				c1.6-3.1,5.4-3.5,6.8-3.6c-0.8,0.1-1.7,1-2.4,2.3L10.1,38.4c0-0.2-0.1-0.4-0.2-0.6C10.2,37.1,10.4,36.5,10.6,35.8z"/>
		</g>
	</g>
	<g>
		
			<linearGradient id="SVGID_6_" gradientUnits="userSpaceOnUse" x1="46.5198" y1="603.2552" x2="21.5316" y2="605.9453" gradientTransform="matrix(-1 0 0 1 45.6683 -558)">
			<stop  offset="4.669190e-02" style="stop-color:#B3B3B3"/>
			<stop  offset="1" style="stop-color:#000000"/>
		</linearGradient>
		<path class="st6" d="M7.7,43.4c-0.4,1.1-0.3,2,1,2c0,0,13.9,0,15.9,0l-1.4,3c-0.1,0.2-0.3,0.5-0.4,0.7c-3.2,0-12.3-0.1-14.9-0.2
			C4.7,48.7,7.7,43.4,7.7,43.4z"/>
	</g>
	<g>
		<linearGradient id="SVGID_7_" gradientUnits="userSpaceOnUse" x1="50.3807" y1="22.9434" x2="37.6461" y2="2.8619">
			<stop  offset="4.669190e-02" style="stop-color:#B8B8B8"/>
			<stop  offset="1" style="stop-color:#1F1A0C"/>
		</linearGradient>
		<path class="st7" d="M39.2,5.2c1.2,2.3,4.6,11,6.5,14.8c1.9,3.8,3.9-1.9,3.9-2L49,19.2l-6.5-13c-0.1-0.2-0.2-0.3-0.3-0.5
			c-1.6-2.5-3.6-4.2-6.1-4.8c-0.5-0.2-1.1-0.3-1.8-0.3h-0.1l0,0C34.3,0.5,38,2.9,39.2,5.2z"/>
	</g>
	<path class="st0" d="M76,35.3l-7.2-13.6c-0.7-1.7-2-1.7-2.8,0L55.2,43.1c-0.7,1.4-1.7,2.3-2.4,2.4h-7.6c-0.8-0.1-1.8-1.1-2.4-2.4
		L32.1,21.7c-0.8-1.7-2.2-1.7-3,0l-7,13.5l6.3-5.7l8.4,16.5c1.6,3,3.9,5.2,6.6,5.9c0.6,0.2,1.2,0.2,1.8,0.2h7.6
		c0.6,0,1.2-0.1,1.8-0.2c2.6-0.7,5.1-2.7,6.6-5.9l8.4-16.6L76,35.3z"/>
</g>
</svg>
