<?xml version="1.0" encoding="utf-8"?>
<!-- Generator: Adobe Illustrator 21.1.0, SVG Export Plug-In . SVG Version: 6.00 Build 0)  -->
<svg version="1.1" id="Layer_1" xmlns="http://www.w3.org/2000/svg" xmlns:xlink="http://www.w3.org/1999/xlink" x="0px" y="0px"
	 viewBox="0 0 508 213" style="enable-background:new 0 0 508 213;" xml:space="preserve">
<style type="text/css">
	.st0{fill:#66FFCC;}
	.st1{fill:url(#SVGID_1_);}
	.st2{fill:url(#SVGID_2_);}
	.st3{fill:#FFFFFF;}
	.st4{fill:#979599;}
</style>
<g>
	<g>
		<rect x="30.3" y="10" class="st0" width="149.8" height="43.6"/>
		<polygon class="st0" points="180.1,126.5 30.3,126.6 30.3,83.1 180.1,83.1 		"/>
		
			<linearGradient id="SVGID_1_" gradientUnits="userSpaceOnUse" x1="788.3969" y1="719.1238" x2="733.963" y2="832.8026" gradientTransform="matrix(1 0 0 -1 -641.1312 948.423)">
			<stop  offset="0.4763" style="stop-color:#66FBCC"/>
			<stop  offset="0.996" style="stop-color:#33C29F"/>
		</linearGradient>
		<polygon class="st1" points="180.1,126.5 30.3,199.8 30.3,156.2 180.1,83.1 		"/>
		
			<linearGradient id="SVGID_2_" gradientUnits="userSpaceOnUse" x1="788.4114" y1="792.2435" x2="733.9775" y2="905.9223" gradientTransform="matrix(1 0 0 -1 -641.1312 948.423)">
			<stop  offset="0.4763" style="stop-color:#66FBCC"/>
			<stop  offset="0.996" style="stop-color:#33C29F"/>
		</linearGradient>
		<polygon class="st2" points="180.1,53.5 30.3,126.6 30.3,83.1 180.1,10 		"/>
	</g>
	<g>
		<polygon class="st3" points="230,44.1 209.1,10 204.5,10 204.5,62.4 210.8,62.4 210.8,24.4 230,55.9 249.2,24.4 249.2,62.4 
			255.4,62.4 255.4,10 250.9,10 		"/>
		<path class="st3" d="M305.8,40.7c0,9.7-5.8,15.7-15.2,15.7c-9.3,0-15.1-6-15.1-15.7V10h-6.2v31c0,13,8.5,21.7,21.3,21.7
			C303.4,62.7,312,54,312,41V10h-6.3L305.8,40.7L305.8,40.7z"/>
		<path class="st3" d="M349.3,16c6.4,0,12.4,2.8,16.4,7.8l1.2,1.5l4.8-4.2l-1.2-1.4c-5.3-6.3-13-9.9-21.3-9.9
			c-15.1,0-27.4,11.9-27.4,26.5s12.3,26.5,27.4,26.5c8.3,0,16-3.6,21.3-9.9l1.2-1.4l-4.8-4.2l-1.2,1.5c-4,4.9-10,7.7-16.4,7.7
			c-11.6,0-21-9.1-21-20.2C328.3,25.1,337.7,16,349.3,16z"/>
		<polygon class="st3" points="416.4,35.9 388.2,35.9 388.2,10 381.9,10 381.9,62.4 388.2,62.4 388.2,42 416.4,42 416.4,62.4 
			422.7,62.4 422.7,10 416.4,10 		"/>
		<path class="st3" d="M459.8,10h-4.3l-23.7,52.4h6.8l6.2-14.1h25.4l6.3,14.1h6.8L459.8,10z M447.5,42.4l10.1-22.9l10.2,22.9H447.5z
			"/>
	</g>
	<g>
		<polygon class="st4" points="230,108.1 209.1,74 204.5,74 204.5,126.4 210.8,126.4 210.8,88.4 230,119.9 249.2,88.4 249.2,126.4 
			255.4,126.4 255.4,74 250.9,74 		"/>
		<polygon class="st4" points="275.5,104 300.8,104 300.8,97.9 275.5,97.9 275.5,80.1 305,80.1 305,74 269.3,74 269.3,126.4 
			306.5,126.4 306.5,120.3 275.5,120.3 		"/>
		<path class="st4" d="M334.3,74h-16.9v52.4h1.9H336c13.8-0.9,24.7-12.4,24.7-26.2C360.7,85.8,348.8,74,334.3,74z M323.7,120.3V80.1
			h10.6c11.1,0,20.1,9,20.1,20.1c0,10.3-8.2,19.1-18.8,20.1C335.6,120.3,323.7,120.3,323.7,120.3z"/>
		<rect x="372" y="74" class="st4" width="6.3" height="52.4"/>
		<path class="st4" d="M414.1,74h-4.3l-23.7,52.4h6.8l6.2-14.1h25.4l6,14.1h6.8L414.1,74z M401.8,106.4l10.1-22.9l10.2,22.9H401.8z"
			/>
	</g>
</g>
</svg>
