<?xml version="1.0" encoding="utf-8"?>
<!-- Generator: Adobe Illustrator 21.1.0, SVG Export Plug-In . SVG Version: 6.00 Build 0)  -->
<svg version="1.1" id="Layer_1" xmlns="http://www.w3.org/2000/svg" xmlns:xlink="http://www.w3.org/1999/xlink" x="0px" y="0px"
	 viewBox="0 0 621.5 283.2" style="enable-background:new 0 0 621.5 283.2;" xml:space="preserve">
<style type="text/css">
	.st0{fill:#45314F;}
	.st1{fill:#5B5B5B;}
	.st2{fill:#66FFCC;}
	.st3{fill:url(#SVGID_1_);}
	.st4{fill:url(#SVGID_2_);}
</style>
<g>
	<g>
		<g>
			<polygon class="st0" points="184.3,224.1 173.1,205.8 170.6,205.8 170.6,233.9 174,233.9 174,213.5 184.3,230.4 194.6,213.5 
				194.6,233.9 198,233.9 198,205.8 195.5,205.8 			"/>
			<path class="st0" d="M225,222.3c0,5.2-3.1,8.4-8.2,8.4c-5,0-8.1-3.2-8.1-8.4v-16.5h-3.3v16.7c0,7,4.6,11.6,11.4,11.6
				c6.9,0,11.5-4.7,11.5-11.6v-16.7H225V222.3z"/>
			<path class="st0" d="M248.4,209c3.4,0,6.6,1.5,8.8,4.2l0.6,0.8l2.6-2.2l-0.6-0.8c-2.8-3.4-7-5.3-11.4-5.3
				c-8.1,0-14.7,6.4-14.7,14.2c0,7.8,6.6,14.2,14.7,14.2c4.4,0,8.6-1.9,11.4-5.3l0.6-0.8l-2.6-2.2l-0.6,0.8
				c-2.2,2.6-5.4,4.1-8.8,4.1c-6.2,0-11.3-4.9-11.3-10.8C237.1,213.9,242.2,209,248.4,209z"/>
			<polygon class="st0" points="284.4,219.7 269.3,219.7 269.3,205.8 265.9,205.8 265.9,233.9 269.3,233.9 269.3,223 284.4,223 
				284.4,233.9 287.8,233.9 287.8,205.8 284.4,205.8 			"/>
			<path class="st0" d="M307.7,205.8h-2.3l-12.7,28.1h3.7l3.3-7.6h13.7l3.4,7.6h3.6L307.7,205.8z M301.1,223.2l5.4-12.3l5.5,12.3
				H301.1z"/>
		</g>
		<g>
			<polygon class="st1" points="340,223.7 328.8,205.4 326.3,205.4 326.3,233.6 329.7,233.6 329.7,213.2 340,230.1 350.3,213.2 
				350.3,233.6 353.7,233.6 353.7,205.4 351.2,205.4 			"/>
			<polygon class="st1" points="364.5,221.5 378,221.5 378,218.3 364.5,218.3 364.5,208.7 380.3,208.7 380.3,205.4 361.1,205.4 
				361.1,233.6 381.1,233.6 381.1,230.3 364.5,230.3 			"/>
			<path class="st1" d="M396,205.4h-9v28.1h1l9,0c7.4-0.5,13.2-6.7,13.2-14.1C410.2,211.8,403.8,205.4,396,205.4z M390.3,230.3
				v-21.6h5.7c5.9,0,10.8,4.8,10.8,10.8c0,5.5-4.4,10.3-10.1,10.8H390.3z"/>
			<rect x="416.2" y="205.4" class="st1" width="3.4" height="28.1"/>
			<path class="st1" d="M438.9,205.4h-2.3l-12.7,28.1h3.7l3.3-7.6h13.7l3.2,7.6h3.6L438.9,205.4z M432.3,222.8l5.4-12.3l5.5,12.3
				H432.3z"/>
		</g>
	</g>
	<g>
		<polygon class="st2" points="368.4,122.5 251.9,122.7 251.9,88.8 368.4,88.8 		"/>
		
			<linearGradient id="SVGID_1_" gradientUnits="userSpaceOnUse" x1="983.9707" y1="-531.9357" x2="941.645" y2="-620.328" gradientTransform="matrix(1 0 0 1 -641.1312 734.423)">
			<stop  offset="0.4763" style="stop-color:#66FBCC"/>
			<stop  offset="0.996" style="stop-color:#33C29F"/>
		</linearGradient>
		<polygon class="st3" points="368.4,122.5 251.9,179.5 251.9,145.6 368.4,88.8 		"/>
		
			<linearGradient id="SVGID_2_" gradientUnits="userSpaceOnUse" x1="983.9706" y1="-588.7854" x2="941.645" y2="-677.1777" gradientTransform="matrix(1 0 0 1 -641.1312 734.423)">
			<stop  offset="0.4763" style="stop-color:#66FBCC"/>
			<stop  offset="0.996" style="stop-color:#33C29F"/>
		</linearGradient>
		<polygon class="st4" points="368.4,65.8 251.9,122.7 251.9,88.8 368.4,31.9 		"/>
		<rect x="251.9" y="31.9" class="st2" width="116.5" height="33.9"/>
	</g>
</g>
</svg>
