<?xml version="1.0" encoding="utf-8"?>
<!-- Generator: Adobe Illustrator 21.1.0, SVG Export Plug-In . SVG Version: 6.00 Build 0)  -->
<svg version="1.1" id="Layer_1" xmlns="http://www.w3.org/2000/svg" xmlns:xlink="http://www.w3.org/1999/xlink" x="0px" y="0px"
	 viewBox="0 0 621.5 283.2" style="enable-background:new 0 0 621.5 283.2;" xml:space="preserve">
<style type="text/css">
	.st0{fill:#E3DEDB;}
	.st1{fill:url(#SVGID_1_);}
	.st2{fill:url(#SVGID_2_);}
	.st3{fill:url(#SVGID_3_);}
	.st4{fill:url(#SVGID_4_);}
	.st5{fill:url(#SVGID_5_);}
	.st6{fill:url(#SVGID_6_);}
	.st7{fill:url(#SVGID_7_);}
	.st8{fill:url(#SVGID_8_);}
	.st9{fill:url(#SVGID_9_);}
</style>
<g>
	<path class="st0" d="M131.5,204.8v27.5h-4.7v-19.5l-9.1,14l-9-14v19.5H104v-27.5h5.1l8.6,13.4l8.6-13.4H131.5z"/>
	<path class="st0" d="M171.1,232.3h-5.2l-2.1-4.7l-2.1-4.7l-5.6-12.3l-5.6,12.3h7.1l2.1,4.7h-11.4l-2.1,4.7H141l12.4-27.5h5.2
		L171.1,232.3z"/>
	<path class="st0" d="M205.9,218.5c0,1.5-0.2,3-0.6,4.3s-1,2.6-1.8,3.8l2.5,2.5v6.7l-14.3-14.3v-6.7l8.4,8.4c0.8-1.4,1.2-3,1.2-4.7
		c0-1.3-0.2-2.5-0.7-3.7s-1.2-2.2-2.1-3.1c-0.9-0.9-1.9-1.6-3.1-2.1s-2.4-0.7-3.7-0.7s-2.5,0.2-3.7,0.7s-2.2,1.2-3.1,2.1
		c-0.9,0.9-1.6,1.9-2.1,3.1s-0.7,2.4-0.7,3.7s0.2,2.5,0.7,3.7s1.2,2.2,2.1,3.1c0.9,0.9,2,1.6,3.1,2.1s2.4,0.7,3.7,0.7
		c0.3,0,0.7,0,1-0.1s0.6-0.1,1-0.1l3.7,3.7c-0.9,0.4-1.8,0.7-2.7,0.9c-1,0.2-1.9,0.3-3,0.3c-2,0-3.8-0.4-5.6-1.1
		c-1.7-0.7-3.3-1.8-4.5-3.1c-1.3-1.3-2.3-2.8-3-4.6c-0.7-1.7-1.1-3.6-1.1-5.6s0.4-3.8,1.1-5.6c0.7-1.7,1.8-3.3,3-4.6
		c1.3-1.3,2.8-2.3,4.5-3.1c1.7-0.7,3.6-1.1,5.6-1.1s3.8,0.4,5.6,1.1s3.2,1.8,4.5,3.1s2.3,2.8,3.1,4.6
		C205.5,214.7,205.9,216.5,205.9,218.5z"/>
	<path class="st0" d="M239.8,204.8v16.5c0,1.6-0.3,3.1-0.9,4.5c-0.6,1.4-1.4,2.6-2.5,3.7s-2.3,1.9-3.7,2.5s-2.9,0.9-4.5,0.9
		s-3.1-0.3-4.5-0.9c-1.4-0.6-2.6-1.4-3.7-2.5s-1.9-2.3-2.5-3.7s-0.9-2.9-0.9-4.5v-16.5h4.7v16.5c0,0.9,0.2,1.8,0.5,2.6
		s0.8,1.6,1.5,2.2c0.7,0.7,1.4,1.2,2.2,1.5s1.7,0.5,2.6,0.5c1.9,0,3.5-0.7,4.8-2c0.7-0.7,1.2-1.4,1.5-2.2s0.5-1.7,0.5-2.6v-16.5
		H239.8z"/>
	<path class="st0" d="M255.1,232.3h-4.7v-27.5h4.7V232.3z"/>
	<path class="st0" d="M286.7,204.8v27.5h-5.1l-11-18.8v18.8h-4.7v-27.5h5.1l11,18.8v-18.8H286.7z"/>
	<path class="st0" d="M326.4,232.3h-5.2l-2.1-4.7l-2.1-4.7l-5.6-12.3l-5.6,12.3h7.1l2.1,4.7h-11.4l-2.1,4.7h-5.2l12.4-27.5h5.2
		L326.4,232.3z"/>
	<path class="st0" d="M361.7,232.3l-11-27.5h5.1l8.4,20.9l7.8-20.9h5l-10.2,27.5H361.7z"/>
	<path class="st0" d="M391.5,232.3h-4.7v-27.5h4.7V232.3z"/>
	<path class="st0" d="M421.7,224.4c0,1.3-0.2,2.4-0.6,3.5c-0.4,1-1,1.9-1.8,2.6c-0.8,0.7-1.7,1.3-2.8,1.7c-1.1,0.4-2.3,0.6-3.7,0.6
		c-2.2,0-4.1-0.3-5.8-1c-1.7-0.7-3.1-1.5-4.2-2.4l3.3-3.3c0.9,0.8,1.8,1.4,2.9,1.8c0.7,0.3,1.3,0.4,1.8,0.5c0.6,0.1,1,0.1,1.4,0.1
		c0.7,0,1.3-0.1,1.9-0.3s1.1-0.4,1.5-0.7c0.9-0.7,1.3-1.5,1.3-2.6c0-0.7-0.2-1.2-0.7-1.8c-0.4-0.4-0.8-0.8-1.4-1
		c-0.5-0.3-1-0.5-1.5-0.6c-0.5-0.2-1-0.3-1.4-0.4c-0.1-0.1-0.2-0.1-0.4-0.1c-0.1,0-0.2,0-0.3-0.1c-0.1,0-0.1,0-0.2-0.1
		c-0.5-0.2-1.3-0.4-2.4-0.8c-1-0.4-2.1-0.9-3.1-1.6c-2.4-1.6-3.6-3.6-3.6-5.9c0-1.5,0.3-2.8,0.8-3.9s1.2-1.9,2.1-2.6
		s1.8-1.1,2.9-1.4s2.1-0.4,3.1-0.4c1.9,0,3.5,0.2,4.8,0.7c1.3,0.4,2.3,0.9,3.1,1.3c0.4,0.2,0.7,0.5,1,0.7s0.5,0.4,0.7,0.6l-3.3,3.4
		c-0.7-0.7-1.4-1.2-2.2-1.6c-1.1-0.5-2.3-0.8-3.5-0.8c-0.5,0-1,0.1-1.6,0.2s-1,0.3-1.4,0.5c-1.2,0.7-1.7,1.6-1.7,2.8
		c0,0.7,0.2,1.3,0.7,1.8c0.3,0.4,0.8,0.7,1.4,1.1c0.5,0.3,1,0.5,1.6,0.6c0.6,0.2,1.1,0.3,1.5,0.4l0.5,0.1c0.1,0.1,0.4,0.1,0.7,0.2
		c0.4,0.1,0.8,0.3,1.3,0.5s1,0.5,1.6,0.7s1.2,0.6,1.7,1C420.4,220.2,421.7,222.2,421.7,224.4z"/>
	<path class="st0" d="M454.8,204.8v16.5c0,1.6-0.3,3.1-0.9,4.5s-1.4,2.6-2.5,3.7s-2.3,1.9-3.7,2.5c-1.4,0.6-2.9,0.9-4.5,0.9
		s-3.1-0.3-4.5-0.9c-1.4-0.6-2.6-1.4-3.7-2.5s-1.9-2.3-2.5-3.7s-0.9-2.9-0.9-4.5v-16.5h4.7v16.5c0,0.9,0.2,1.8,0.5,2.6
		s0.8,1.6,1.5,2.2c0.7,0.7,1.4,1.2,2.2,1.5c0.8,0.3,1.7,0.5,2.6,0.5c1.9,0,3.5-0.7,4.8-2c0.7-0.7,1.2-1.4,1.5-2.2s0.5-1.7,0.5-2.6
		v-16.5H454.8z"/>
	<path class="st0" d="M492.4,232.3h-5.2l-2.1-4.7l-2.1-4.7l-5.6-12.3l-5.6,12.3h7.1l2.1,4.7h-11.4l-2.1,4.7h-5.2l12.4-27.5h5.2
		L492.4,232.3z"/>
	<path class="st0" d="M517.6,227.6v4.7h-10.8h-4.7v-4.7v-22.7h4.7v22.7H517.6z"/>
</g>
<polygon class="st0" points="159.5,202.8 161.3,199 156.1,199 154.4,202.8 "/>
<g>
	
		<linearGradient id="SVGID_1_" gradientUnits="userSpaceOnUse" x1="409.3335" y1="1352.1707" x2="212.2166" y2="1352.1707" gradientTransform="matrix(1 0 0 1 0 -1252)">
		<stop  offset="0" style="stop-color:#C55903"/>
		<stop  offset="1" style="stop-color:#D62688"/>
	</linearGradient>
	<path class="st1" d="M406.6,125.4l-33-65.4c-3.6-6.9-9.2-11.6-15.5-12.2c-0.9-0.1-1.5-0.1-2-0.1h-15.3c-1.2,0-2.5,0.1-3.6,0.4
		c-4.8,1.2-9.2,4.6-12.4,9.7c-0.1,0.4-0.4,0.6-0.6,1l-13.4,26.8l-13.3-26.5c-0.1-0.4-0.4-0.6-0.6-1c-3.2-5.2-7.4-8.5-12.4-9.7
		c-1-0.4-2.2-0.6-3.6-0.6h-15.6c-0.6,0-1.2,0-1.8,0.1c-6.3,0.9-11.8,5.2-15.5,12.2l-33,65.3c-3.1,5.9-3.6,12.2-1.8,17.1
		c1.6,5.8,6.9,10.1,13.3,10.1h18.8c5.3,0,9.8-3,12.3-7.5l2.9-6.1c-6.6,0-33,0-33,0l0,0c-3.8,0.1-1.8-4.8-0.1-7.7l32.8-65.2
		c1.5-2.8,3.6-4.9,5-4.9h15.5c1.5,0.1,3.1,1.7,4.2,3.9l22.5,44.4c0.9,1.7,2,2.6,3.2,2.6s2.2-0.9,3.2-2.6l22.5-44.7
		c1.5-2.2,3.1-3.6,4.2-3.8l0,0H356l0,0c1.6,0,3.6,2,5,4.8l33.1,65.4c1.5,3,4.1,7.7-0.1,7.7c0,0-28.9,0-33,0l2.9,6.1
		c2.5,4.6,7,7.5,12.3,7.5h18.7c6.4,0,11.7-4.3,13.3-10.1C410.2,137.6,409.5,131.4,406.6,125.4z"/>
	<g>
		<g>
			
				<linearGradient id="SVGID_2_" gradientUnits="userSpaceOnUse" x1="361.6273" y1="1327.4668" x2="382.7277" y2="1375.9474" gradientTransform="matrix(1 0 0 1 0 -1252)">
				<stop  offset="4.669190e-02" style="stop-color:#6D2A06"/>
				<stop  offset="0.3253" style="stop-color:#E12C06"/>
				<stop  offset="0.6584" style="stop-color:#C55903"/>
			</linearGradient>
			<path class="st2" d="M355.1,61.2h0.6C355.4,61.2,355.1,61.2,355.1,61.2z"/>
			
				<linearGradient id="SVGID_3_" gradientUnits="userSpaceOnUse" x1="362.1179" y1="1327.2533" x2="383.2183" y2="1375.734" gradientTransform="matrix(1 0 0 1 0 -1252)">
				<stop  offset="4.669190e-02" style="stop-color:#6D2A06"/>
				<stop  offset="0.3253" style="stop-color:#E12C06"/>
				<stop  offset="0.6584" style="stop-color:#C55903"/>
			</linearGradient>
			<path class="st3" d="M355.7,61.2c0.1,0,0.4,0,0.6,0h-0.1H355.7z"/>
			
				<linearGradient id="SVGID_4_" gradientUnits="userSpaceOnUse" x1="368.0454" y1="1324.5718" x2="389.0171" y2="1372.7568" gradientTransform="matrix(1 0 0 1 0 -1252)">
				<stop  offset="4.669190e-02" style="stop-color:#6D2A06"/>
				<stop  offset="0.3253" style="stop-color:#E12C06"/>
				<stop  offset="0.6584" style="stop-color:#C55903"/>
			</linearGradient>
			<path class="st4" d="M389.7,119.5c-1.5-5.4-0.9-6.9-0.4-8.3c0.7-2.2-0.1-6.2-1.2-8.3c-4.5-9-16.6-32.1-17.9-34.5
				c-3.4-6.2-11.1-7.2-13.9-7.4c1.6,0.1,3.5,2,4.8,4.8l29.9,58.8c0-0.4,0-0.7,0.1-1.2C390.6,122.1,390.1,120.8,389.7,119.5z"/>
		</g>
	</g>
	<g>
		
			<linearGradient id="SVGID_5_" gradientUnits="userSpaceOnUse" x1="413.4346" y1="1948.7329" x2="362.1692" y2="1954.2518" gradientTransform="matrix(1 0 0 1 0 -1810)">
			<stop  offset="4.669190e-02" style="stop-color:#6D2A06"/>
			<stop  offset="1" style="stop-color:#E12C06"/>
		</linearGradient>
		<path class="st5" d="M396,135c0.7,2.2,1,4.2-1.8,4.2c0,0-28.9,0-33,0l2.9,6.1c0.3,0.4,0.6,1,0.9,1.4c6.7,0,25.1-0.1,30.5-0.4
			C401.9,145.7,396,135,396,135z"/>
	</g>
	<g>
		<g>
			
				<linearGradient id="SVGID_6_" gradientUnits="userSpaceOnUse" x1="-3117.8125" y1="1324.5371" x2="-3096.8521" y2="1372.6959" gradientTransform="matrix(-1 0 0 1 -2864.3315 -1252)">
				<stop  offset="4.669190e-02" style="stop-color:#6D2A06"/>
				<stop  offset="0.285" style="stop-color:#E12C06"/>
				<stop  offset="0.5104" style="stop-color:#D62688"/>
			</linearGradient>
			<path class="st6" d="M231.8,119.5c1.5-5.4,0.9-6.9,0.4-8.3c-0.7-2.2,0.1-6.2,1.2-8.3c4.5-9,16.6-32.1,17.9-34.5
				c3.4-6.2,11.1-7.2,13.9-7.4c-1.6,0.1-3.5,2-4.8,4.8l-29.6,58.8c0-0.4-0.3-0.9-0.3-1.2C231.1,122.1,231.5,120.8,231.8,119.5z"/>
		</g>
	</g>
	<g>
		
			<linearGradient id="SVGID_7_" gradientUnits="userSpaceOnUse" x1="-3072.7725" y1="1948.6776" x2="-3124.0386" y2="1954.1968" gradientTransform="matrix(-1 0 0 1 -2864.3315 -1810)">
			<stop  offset="4.669190e-02" style="stop-color:#6D2A06"/>
			<stop  offset="1" style="stop-color:#E12C06"/>
		</linearGradient>
		<path class="st7" d="M225.9,135c-0.7,2.2-0.6,4.1,2,4.1c0,0,28.6,0,32.5,0l-2.9,6.1c-0.3,0.4-0.6,1-0.9,1.4
			c-6.7,0-25.1-0.1-30.5-0.4C219.9,145.7,226,135,225.9,135z"/>
	</g>
	<g>
		
			<linearGradient id="SVGID_8_" gradientUnits="userSpaceOnUse" x1="313.3414" y1="1345.365" x2="287.3567" y2="1304.389" gradientTransform="matrix(1 0 0 1 0 -1252)">
			<stop  offset="4.669190e-02" style="stop-color:#6D2A06"/>
			<stop  offset="1" style="stop-color:#E12C06"/>
		</linearGradient>
		<path class="st8" d="M290.5,57.1c2.5,4.6,9.5,22.3,13.3,30.1s8-3.8,8-4.1l-1.2,2.5l-13.3-26.5c-0.1-0.4-0.4-0.6-0.6-1
			c-3.2-5.2-7.4-8.5-12.4-9.7c-1-0.4-2.2-0.6-3.6-0.6h-0.1l0,0C280.6,47.7,288.1,52.5,290.5,57.1z"/>
	</g>
	
		<linearGradient id="SVGID_9_" gradientUnits="userSpaceOnUse" x1="255.3258" y1="1372.4949" x2="366.0348" y2="1372.4949" gradientTransform="matrix(1 0 0 1 0 -1252)">
		<stop  offset="0" style="stop-color:#C55903"/>
		<stop  offset="1" style="stop-color:#D62688"/>
	</linearGradient>
	<path class="st9" d="M366,118.5l-14.7-27.8c-1.5-3.3-4.1-3.3-5.8,0l-22,43.7c-1.5,2.8-3.4,4.6-4.8,4.8h-15.8
		c-1.6-0.1-3.6-2.2-4.8-4.8l-22.2-43.7c-1.6-3.3-4.4-3.3-6.3,0l-14.4,27.5l13-11.6l17.4,33.7c3.2,6.2,8,10.6,13.4,12
		c1.2,0.4,2.5,0.4,3.6,0.4h15.6c1.2,0,2.5-0.1,3.6-0.4c5.4-1.4,10.5-5.6,13.4-12l17.4-33.7L366,118.5z"/>
</g>
</svg>
