<?xml version="1.0" encoding="utf-8"?>
<!-- Generator: Adobe Illustrator 21.1.0, SVG Export Plug-In . SVG Version: 6.00 Build 0)  -->
<svg version="1.1" id="Layer_1" xmlns="http://www.w3.org/2000/svg" xmlns:xlink="http://www.w3.org/1999/xlink" x="0px" y="0px"
	 viewBox="0 0 621.5 283.2" style="enable-background:new 0 0 621.5 283.2;" xml:space="preserve">
<style type="text/css">
	.st0{fill:#FFFFFF;}
	.st1{fill:#5B5B5B;}
	.st2{fill:#66FFCC;}
	.st3{fill:url(#SVGID_1_);}
	.st4{fill:url(#SVGID_2_);}
</style>
<g>
	<g>
		<g>
			<polygon class="st0" points="143.8,259.3 129,235.1 125.7,235.1 125.7,272.2 130.2,272.2 130.2,245.3 143.8,267.6 157.4,245.3 
				157.4,272.2 161.8,272.2 161.8,235.1 158.5,235.1 			"/>
			<path class="st0" d="M197.5,256.9c0,6.9-4.1,11.1-10.8,11.1c-6.6,0-10.7-4.2-10.7-11.1v-21.8h-4.4v22c0,9.2,6.1,15.3,15,15.3
				c9.1,0,15.2-6.2,15.2-15.3v-22h-4.4V256.9z"/>
			<path class="st0" d="M228.4,239.3c4.5,0,8.7,2,11.6,5.5l0.8,1.1l3.4-2.9l-0.8-1.1c-3.7-4.5-9.2-7-15-7
				c-10.7,0-19.4,8.4-19.4,18.7s8.7,18.7,19.4,18.7c5.8,0,11.4-2.5,15-7l0.8-1.1l-3.4-2.9l-0.8,1.1c-2.9,3.4-7.1,5.4-11.6,5.4
				c-8.2,0-14.9-6.5-14.9-14.3C213.5,245.8,220.2,239.3,228.4,239.3z"/>
			<polygon class="st0" points="275.9,253.4 256,253.4 256,235.1 251.5,235.1 251.5,272.2 256,272.2 256,257.8 275.9,257.8 
				275.9,272.2 280.4,272.2 280.4,235.1 275.9,235.1 			"/>
			<path class="st0" d="M306.6,235.1h-3l-16.8,37.1h4.9l4.4-10h18.1l4.5,10h4.8L306.6,235.1z M297.9,258.1l7.1-16.2l7.3,16.2H297.9z
				"/>
		</g>
		<g>
			<polygon class="st1" points="349.3,258.7 334.5,234.6 331.2,234.6 331.2,271.8 335.7,271.8 335.7,244.9 349.3,267.2 362.9,244.9 
				362.9,271.8 367.4,271.8 367.4,234.6 364.1,234.6 			"/>
			<polygon class="st1" points="381.6,255.8 399.4,255.8 399.4,251.6 381.6,251.6 381.6,238.9 402.5,238.9 402.5,234.6 377.1,234.6 
				377.1,271.8 403.5,271.8 403.5,267.4 381.6,267.4 			"/>
			<path class="st1" d="M423.2,234.6h-11.9v37.1h1.3h11.9c9.8-0.7,17.4-8.8,17.4-18.6C441.9,243,433.5,234.6,423.2,234.6z
				 M415.7,267.4v-28.5h7.5c7.8,0,14.3,6.3,14.3,14.3c0,7.3-5.8,13.6-13.3,14.3H415.7z"/>
			<rect x="449.9" y="234.6" class="st1" width="4.5" height="37.1"/>
			<path class="st1" d="M479.8,234.6h-3L460,271.7h4.9l4.4-10h18.1l4.2,10h4.8L479.8,234.6z M471.1,257.5l7.1-16.2l7.3,16.2H471.1z"
				/>
		</g>
	</g>
	<g>
		<polygon class="st2" points="386.8,125.1 233,125.4 233,80.7 386.8,80.7 		"/>
		
			<linearGradient id="SVGID_1_" gradientUnits="userSpaceOnUse" x1="994.1948" y1="789.7168" x2="938.325" y2="906.3946" gradientTransform="matrix(1 0 0 -1 -641.1312 1020.423)">
			<stop  offset="0.4763" style="stop-color:#66FBCC"/>
			<stop  offset="0.996" style="stop-color:#33C29F"/>
		</linearGradient>
		<polygon class="st3" points="386.8,125.1 233,200.4 233,155.6 386.8,80.7 		"/>
		
			<linearGradient id="SVGID_2_" gradientUnits="userSpaceOnUse" x1="994.1949" y1="864.7585" x2="938.3251" y2="981.4363" gradientTransform="matrix(1 0 0 -1 -641.1312 1020.423)">
			<stop  offset="0.4763" style="stop-color:#66FBCC"/>
			<stop  offset="0.996" style="stop-color:#33C29F"/>
		</linearGradient>
		<polygon class="st4" points="386.8,50.3 233,125.4 233,80.7 386.8,5.5 		"/>
		<rect x="233" y="5.5" class="st2" width="153.8" height="44.7"/>
	</g>
</g>
</svg>
