<?xml version="1.0" encoding="utf-8"?>
<!-- Generator: Adobe Illustrator 21.1.0, SVG Export Plug-In . SVG Version: 6.00 Build 0)  -->
<svg version="1.1" id="Layer_1" xmlns="http://www.w3.org/2000/svg" xmlns:xlink="http://www.w3.org/1999/xlink" x="0px" y="0px"
	 viewBox="0 0 508 141" style="enable-background:new 0 0 508 141;" xml:space="preserve">
<style type="text/css">
	.st0{fill:#1E1814;}
	.st1{fill:url(#SVGID_1_);}
	.st2{fill:url(#SVGID_2_);}
	.st3{fill:url(#SVGID_3_);}
	.st4{fill:url(#SVGID_4_);}
	.st5{fill:url(#SVGID_5_);}
	.st6{fill:url(#SVGID_6_);}
	.st7{fill:url(#SVGID_7_);}
	.st8{fill:url(#SVGID_8_);}
	.st9{fill:url(#SVGID_9_);}
	.st10{fill:url(#SVGID_10_);}
	.st11{fill:#FFFFFF;}
	.st12{fill:url(#SVGID_11_);}
	.st13{fill:url(#SVGID_12_);}
	.st14{fill:url(#SVGID_13_);}
	.st15{fill:url(#SVGID_14_);}
	.st16{fill:url(#SVGID_15_);}
	.st17{fill:url(#SVGID_16_);}
	.st18{fill:url(#SVGID_17_);}
	.st19{fill:url(#SVGID_18_);}
	.st20{fill:url(#SVGID_19_);}
	.st21{fill:url(#SVGID_20_);}
</style>
<g>
	<g>
		<path class="st0" d="M501.6,2980.6v33.5h-5.7v-23.7l-11,17.1l-11-17.1v23.7h-5.7v-33.5h6.3l10.5,16.3l10.5-16.3H501.6z"/>
		<path class="st0" d="M549.9,3014.2h-6.3l-2.6-5.7l-2.6-5.7l-6.8-15l-6.8,15h8.7l2.6,5.7h-13.9l-2.6,5.7h-6.3l15.1-33.5h6.3
			L549.9,3014.2z"/>
		<path class="st0" d="M594.6,2997.4c0,1.8-0.3,3.6-0.8,5.3s-1.3,3.2-2.2,4.6l3,3.1v8.1l-17.4-17.4v-8.1l10.2,10.2
			c1-1.7,1.4-3.6,1.4-5.7c0-1.6-0.3-3-0.9-4.4c-0.6-1.4-1.4-2.7-2.5-3.8s-2.4-2-3.8-2.6s-2.9-0.9-4.5-0.9s-3,0.3-4.4,0.9
			s-2.7,1.4-3.8,2.6c-1.1,1.1-2,2.4-2.5,3.8c-0.6,1.4-0.9,2.9-0.9,4.4c0,1.6,0.3,3.1,0.9,4.5c0.6,1.4,1.4,2.7,2.5,3.8s2.4,2,3.8,2.5
			s2.9,0.9,4.4,0.9c0.4,0,0.8,0,1.2-0.1s0.8-0.1,1.2-0.2l4.5,4.5c-1.1,0.4-2.2,0.8-3.3,1.1c-1.2,0.3-2.4,0.4-3.6,0.4
			c-2.4,0-4.6-0.5-6.8-1.4c-2.1-0.9-4-2.1-5.5-3.7c-1.6-1.6-2.8-3.4-3.7-5.6c-0.9-2.1-1.4-4.4-1.4-6.8c0-2.4,0.5-4.6,1.4-6.8
			c0.9-2.1,2.1-4,3.7-5.5c1.6-1.6,3.4-2.8,5.5-3.7s4.4-1.4,6.8-1.4c2.4,0,4.7,0.5,6.8,1.4s3.9,2.1,5.5,3.7s2.8,3.4,3.7,5.5
			C594.1,2992.7,594.6,2995,594.6,2997.4z"/>
		<path class="st0" d="M638.3,2980.7v20.1c0,1.9-0.4,3.8-1.1,5.5c-0.7,1.7-1.7,3.2-3,4.5s-2.8,2.3-4.5,3s-3.5,1.1-5.5,1.1
			c-1.9,0-3.8-0.4-5.5-1.1c-1.7-0.7-3.2-1.7-4.5-3s-2.3-2.8-3-4.5s-1.1-3.5-1.1-5.5v-20.1h5.7v20.1c0,1.1,0.2,2.2,0.6,3.2
			c0.4,1,1,1.9,1.8,2.7s1.7,1.4,2.7,1.8c1,0.4,2.1,0.6,3.2,0.6c2.3,0,4.3-0.8,5.9-2.4c0.8-0.8,1.4-1.7,1.8-2.7
			c0.4-1,0.6-2.1,0.6-3.2v-20.1L638.3,2980.7L638.3,2980.7z"/>
		<path class="st0" d="M659.4,3014.2h-5.7v-33.4h5.7V3014.2z"/>
		<path class="st0" d="M700.4,2980.6v33.5h-6.2l-13.4-22.9v22.9H675v-33.5h6.2l13.4,22.9v-22.9H700.4z"/>
		<path class="st0" d="M753.5,3014.2h-6.3l-2.6-5.7l-2.6-5.7l-6.8-15l-6.8,15h8.7l2.6,5.7h-13.9l-2.6,5.7h-6.3l15.1-33.5h6.3
			L753.5,3014.2z"/>
		<path class="st0" d="M477.6,3049.5l-8.6-21.4h4l6.5,16.3l6.1-16.3h3.9l-8,21.4H477.6z"/>
		<path class="st0" d="M500.8,3049.5h-3.7v-21.4h3.7V3049.5z"/>
		<path class="st0" d="M524.4,3043.4c0,1-0.2,1.9-0.5,2.7s-0.8,1.5-1.4,2.1c-0.6,0.6-1.3,1-2.2,1.3s-1.8,0.5-2.9,0.5
			c-1.7,0-3.2-0.3-4.5-0.8s-2.4-1.2-3.3-1.9l2.5-2.5c0.7,0.6,1.4,1.1,2.3,1.4c0.5,0.2,1,0.3,1.4,0.4c0.4,0.1,0.8,0.1,1.1,0.1
			c0.5,0,1-0.1,1.5-0.2c0.4-0.1,0.8-0.3,1.1-0.5c0.7-0.5,1-1.2,1-2c0-0.5-0.2-1-0.6-1.4c-0.3-0.3-0.7-0.6-1.1-0.8
			c-0.4-0.2-0.8-0.4-1.2-0.5s-0.8-0.2-1.1-0.3c-0.1,0-0.2-0.1-0.3-0.1s-0.2,0-0.2-0.1c0,0-0.1,0-0.2-0.1c-0.4-0.1-1-0.3-1.9-0.6
			c-0.8-0.3-1.6-0.7-2.4-1.3c-1.9-1.2-2.8-2.8-2.8-4.6c0-1.2,0.2-2.2,0.6-3s1-1.5,1.6-2c0.7-0.5,1.4-0.9,2.2-1.1
			c0.8-0.2,1.6-0.3,2.4-0.3c1.5,0,2.7,0.2,3.7,0.5s1.8,0.7,2.4,1c0.3,0.2,0.6,0.4,0.8,0.5s0.4,0.3,0.6,0.5l-2.6,2.6
			c-0.6-0.6-1.1-1-1.7-1.3c-0.9-0.4-1.8-0.6-2.7-0.6c-0.4,0-0.8,0.1-1.2,0.2c-0.4,0.1-0.8,0.2-1.1,0.4c-0.9,0.6-1.3,1.3-1.3,2.2
			c0,0.6,0.2,1,0.6,1.4c0.3,0.3,0.6,0.6,1.1,0.8c0.4,0.2,0.8,0.4,1.2,0.5s0.8,0.2,1.2,0.3l0.4,0.1c0.1,0,0.3,0.1,0.6,0.2
			c0.3,0.1,0.6,0.2,1,0.4s0.8,0.4,1.3,0.6c0.5,0.2,0.9,0.5,1.4,0.8C523.4,3040.1,524.4,3041.6,524.4,3043.4z"/>
		<path class="st0" d="M550.2,3028.1v12.9c0,1.2-0.2,2.4-0.7,3.5s-1.1,2-1.9,2.9c-0.8,0.8-1.8,1.5-2.9,1.9c-1.1,0.5-2.3,0.7-3.5,0.7
			s-2.4-0.2-3.5-0.7s-2-1.1-2.9-1.9c-0.8-0.8-1.5-1.8-1.9-2.9c-0.5-1.1-0.7-2.3-0.7-3.5v-12.9h3.7v12.9c0,0.7,0.1,1.4,0.4,2
			c0.3,0.6,0.7,1.2,1.2,1.7s1.1,0.9,1.7,1.2c0.6,0.3,1.3,0.4,2,0.4c1.5,0,2.7-0.5,3.8-1.6c0.5-0.5,0.9-1.1,1.2-1.7
			c0.3-0.6,0.4-1.3,0.4-2v-12.9L550.2,3028.1L550.2,3028.1z"/>
		<path class="st0" d="M579.5,3049.5h-4l-1.7-3.7l-1.7-3.7l-4.3-9.6l-4.3,9.6h5.6l1.7,3.7h-8.9l-1.7,3.7h-4l9.7-21.4h4L579.5,3049.5
			z"/>
		<path class="st0" d="M599.1,3045.8v3.7h-8.4H587v-3.7v-17.7h3.7v17.7H599.1z"/>
	</g>
	
		<linearGradient id="SVGID_1_" gradientUnits="userSpaceOnUse" x1="463.6103" y1="-4099.3979" x2="418.1975" y2="-4170.6533" gradientTransform="matrix(1 0 0 -1 0 -1108)">
		<stop  offset="0" style="stop-color:#C55903"/>
		<stop  offset="1" style="stop-color:#D62688"/>
	</linearGradient>
	<rect x="447.4" y="2966.7" class="st1" width="2.4" height="96.5"/>
	<g>
		
			<linearGradient id="SVGID_2_" gradientUnits="userSpaceOnUse" x1="426.5226" y1="4267.5" x2="291.4544" y2="4267.5" gradientTransform="matrix(1 0 0 1 0 -1252)">
			<stop  offset="0" style="stop-color:#C55903"/>
			<stop  offset="1" style="stop-color:#D62688"/>
		</linearGradient>
		<path class="st2" d="M424.6,3032.9l-22.6-45.2c-2.5-4.8-6.3-8-10.6-8.4c-0.6-0.1-1-0.1-1.4-0.1h-10.5c-0.8,0-1.7,0.1-2.5,0.3
			c-3.3,0.8-6.3,3.2-8.5,6.7c-0.1,0.3-0.3,0.4-0.4,0.7l-9.2,18.5l-9.1-18.3c-0.1-0.3-0.3-0.4-0.4-0.7c-2.2-3.6-5.1-5.9-8.5-6.7
			c-0.7-0.3-1.5-0.4-2.5-0.4h-10.6c-0.4,0-0.8,0-1.2,0.1c-4.3,0.6-8.1,3.6-10.6,8.4l-22.6,45.2c-2.1,4.1-2.5,8.4-1.2,11.8
			c1.1,4,4.7,7,9.1,7h12.9c3.6,0,6.7-2.1,8.4-5.2l2-4.2c-4.5,0-22.6,0-22.6,0l0,0c-2.6,0.1-1.2-3.3-0.1-5.3l22.5-45
			c1-1.9,2.5-3.4,3.4-3.4h10.6c1,0.1,2.1,1.2,2.9,2.7l15.4,30.7c0.6,1.2,1.4,1.8,2.2,1.8c0.8,0,1.5-0.6,2.2-1.8l15.4-30.9
			c1-1.5,2.1-2.5,2.9-2.6l0,0H390l0,0c1.1,0,2.5,1.4,3.4,3.3l22.7,45.2c1,2.1,2.8,5.3-0.1,5.3c0,0-19.8,0-22.6,0l2,4.2
			c1.7,3.2,4.8,5.2,8.4,5.2h12.8c4.4,0,8-3,9.1-7C427.1,3041.3,426.7,3037.1,424.6,3032.9z"/>
		<g>
			<g>
				
					<linearGradient id="SVGID_3_" gradientUnits="userSpaceOnUse" x1="393.8467" y1="4250.3574" x2="408.3105" y2="4283.5898" gradientTransform="matrix(1 0 0 1 0 -1252)">
					<stop  offset="4.669190e-02" style="stop-color:#6D2A06"/>
					<stop  offset="0.3253" style="stop-color:#E12C06"/>
					<stop  offset="0.6584" style="stop-color:#C55903"/>
				</linearGradient>
				<path class="st3" d="M389.4,2988.6h0.4C389.5,2988.6,389.4,2988.6,389.4,2988.6z"/>
				
					<linearGradient id="SVGID_4_" gradientUnits="userSpaceOnUse" x1="394.099" y1="4250.2476" x2="408.5627" y2="4283.4795" gradientTransform="matrix(1 0 0 1 0 -1252)">
					<stop  offset="4.669190e-02" style="stop-color:#6D2A06"/>
					<stop  offset="0.3253" style="stop-color:#E12C06"/>
					<stop  offset="0.6584" style="stop-color:#C55903"/>
				</linearGradient>
				<path class="st4" d="M389.7,2988.6c0.1,0,0.3,0,0.4,0H390H389.7z"/>
				
					<linearGradient id="SVGID_5_" gradientUnits="userSpaceOnUse" x1="398.2315" y1="4248.4492" x2="412.6952" y2="4281.6812" gradientTransform="matrix(1 0 0 1 0 -1252)">
					<stop  offset="4.669190e-02" style="stop-color:#6D2A06"/>
					<stop  offset="0.3253" style="stop-color:#E12C06"/>
					<stop  offset="0.6584" style="stop-color:#C55903"/>
				</linearGradient>
				<path class="st5" d="M413.1,3028.9c-1-3.7-0.6-4.8-0.3-5.7c0.5-1.5-0.1-4.3-0.8-5.7c-3.1-6.2-11.4-22.2-12.3-23.8
					c-2.3-4.3-7.6-5-9.5-5.1c1.1,0.1,2.4,1.4,3.3,3.3l20.4,40.5c0-0.3,0-0.5,0.1-0.8C413.6,3030.7,413.3,3029.7,413.1,3028.9z"/>
			</g>
		</g>
		<g>
			
				<linearGradient id="SVGID_6_" gradientUnits="userSpaceOnUse" x1="429.3292" y1="4852.0903" x2="394.1906" y2="4855.873" gradientTransform="matrix(1 0 0 1 0 -1810)">
				<stop  offset="4.669190e-02" style="stop-color:#6D2A06"/>
				<stop  offset="1" style="stop-color:#E12C06"/>
			</linearGradient>
			<path class="st6" d="M417.3,3039.5c0.5,1.5,0.7,2.9-1.2,2.9c0,0-19.8,0-22.6,0l2,4.2c0.2,0.3,0.4,0.7,0.6,1
				c4.6,0,17.2-0.1,20.9-0.3C421.5,3047,417.3,3039.5,417.3,3039.5z"/>
		</g>
		<g>
			<g>
				
					<linearGradient id="SVGID_7_" gradientUnits="userSpaceOnUse" x1="-3298.0957" y1="4248.459" x2="-3283.6396" y2="4281.6733" gradientTransform="matrix(-1 0 0 1 -2978.3315 -1252)">
					<stop  offset="4.669190e-02" style="stop-color:#6D2A06"/>
					<stop  offset="0.285" style="stop-color:#E12C06"/>
					<stop  offset="0.5104" style="stop-color:#D62688"/>
				</linearGradient>
				<path class="st7" d="M304.9,3028.9c1-3.7,0.6-4.8,0.3-5.7c-0.5-1.5,0.1-4.3,0.8-5.7c3.1-6.2,11.4-22.2,12.3-23.8
					c2.3-4.3,7.6-5,9.5-5.1c-1.1,0.1-2.4,1.4-3.3,3.3l-20.3,40.6c0-0.3-0.2-0.6-0.2-0.8C304.3,3030.7,304.7,3029.7,304.9,3028.9z"/>
			</g>
		</g>
		<g>
			
				<linearGradient id="SVGID_8_" gradientUnits="userSpaceOnUse" x1="-3267.1592" y1="4852.0537" x2="-3302.2979" y2="4855.8364" gradientTransform="matrix(-1 0 0 1 -2978.3315 -1810)">
				<stop  offset="4.669190e-02" style="stop-color:#6D2A06"/>
				<stop  offset="1" style="stop-color:#E12C06"/>
			</linearGradient>
			<path class="st8" d="M300.8,3039.5c-0.5,1.5-0.4,2.8,1.4,2.8c0,0,19.6,0,22.3,0l-2,4.2c-0.2,0.3-0.4,0.7-0.6,1
				c-4.6,0-17.2-0.1-20.9-0.3C296.7,3047,300.8,3039.5,300.8,3039.5z"/>
		</g>
		<g>
			
				<linearGradient id="SVGID_9_" gradientUnits="userSpaceOnUse" x1="360.8347" y1="4262.7417" x2="342.9273" y2="4234.5029" gradientTransform="matrix(1 0 0 1 0 -1252)">
				<stop  offset="4.669190e-02" style="stop-color:#6D2A06"/>
				<stop  offset="1" style="stop-color:#E12C06"/>
			</linearGradient>
			<path class="st9" d="M345.1,2985.7c1.7,3.2,6.5,15.4,9.1,20.8c2.6,5.4,5.5-2.6,5.5-2.8l-0.8,1.7l-9.1-18.3
				c-0.1-0.3-0.3-0.4-0.4-0.7c-2.2-3.6-5.1-5.9-8.5-6.7c-0.7-0.3-1.5-0.4-2.5-0.4h-0.1l0,0C338.3,2979.2,343.4,2982.5,345.1,2985.7z
				"/>
		</g>
		
			<linearGradient id="SVGID_10_" gradientUnits="userSpaceOnUse" x1="320.958" y1="4281.4878" x2="396.8458" y2="4281.4878" gradientTransform="matrix(1 0 0 1 0 -1252)">
			<stop  offset="0" style="stop-color:#C55903"/>
			<stop  offset="1" style="stop-color:#D62688"/>
		</linearGradient>
		<path class="st10" d="M396.8,3028.1l-10.1-19.2c-1-2.3-2.8-2.3-4,0l-15.2,30.2c-1,1.9-2.3,3.2-3.3,3.3h-10.7
			c-1.1-0.1-2.5-1.5-3.3-3.3l-15.2-30.2c-1.1-2.3-3-2.3-4.3,0l-9.9,19l8.9-8l11.9,23.3c2.2,4.3,5.5,7.3,9.2,8.3
			c0.8,0.3,1.7,0.3,2.5,0.3H364c0.8,0,1.7-0.1,2.5-0.3c3.7-1,7.2-3.9,9.2-8.3l11.9-23.3L396.8,3028.1z"/>
	</g>
</g>
<g>
	<g>
		<path class="st11" d="M246.2,36.2v33.5h-5.7V45.9l-11,17.1l-11-17.1v23.7h-5.7V36.2h6.3l10.5,16.3l10.5-16.3H246.2z"/>
		<path class="st11" d="M294.4,69.7h-6.3l-2.6-5.7l-2.6-5.7l-6.8-15l-6.8,15h8.7l2.6,5.7h-13.9l-2.6,5.7h-6.3L273,36.2h6.3
			L294.4,69.7z"/>
		<path class="st11" d="M336.1,52.9c0,1.8-0.3,3.6-0.8,5.3s-1.3,3.2-2.2,4.6l3,3.1V74l-17.4-17.4v-8.1L329,58.6
			c1-1.7,1.4-3.6,1.4-5.7c0-1.6-0.3-3-0.9-4.4s-1.4-2.7-2.5-3.8s-2.4-2-3.8-2.6s-2.9-0.9-4.5-0.9s-3,0.3-4.4,0.9s-2.7,1.4-3.8,2.6
			c-1.1,1.1-2,2.4-2.5,3.8s-0.9,2.9-0.9,4.4c0,1.6,0.3,3.1,0.9,4.5s1.4,2.7,2.5,3.8s2.4,2,3.8,2.5c1.4,0.6,2.9,0.9,4.4,0.9
			c0.4,0,0.8,0,1.2-0.1c0.4,0,0.8-0.1,1.2-0.2l4.5,4.5c-1.1,0.4-2.2,0.8-3.3,1.1c-1.2,0.3-2.4,0.4-3.6,0.4c-2.4,0-4.6-0.5-6.8-1.4
			c-2.1-0.9-4-2.1-5.5-3.7c-1.6-1.6-2.8-3.4-3.7-5.6c-0.9-2.1-1.4-4.4-1.4-6.8s0.5-4.6,1.4-6.8c0.9-2.1,2.1-4,3.7-5.5
			c1.6-1.6,3.4-2.8,5.5-3.7s4.4-1.4,6.8-1.4s4.7,0.5,6.8,1.4c2.1,0.9,3.9,2.1,5.5,3.7c1.6,1.6,2.8,3.4,3.7,5.5
			C335.7,48.3,336.1,50.5,336.1,52.9z"/>
		<path class="st11" d="M375.8,36.2v20.1c0,1.9-0.4,3.8-1.1,5.5s-1.7,3.2-3,4.5s-2.8,2.3-4.5,3s-3.5,1.1-5.5,1.1
			c-1.9,0-3.8-0.4-5.5-1.1s-3.2-1.7-4.5-3s-2.3-2.8-3-4.5s-1.1-3.5-1.1-5.5V36.2h5.7v20.1c0,1.1,0.2,2.2,0.6,3.2s1,1.9,1.8,2.7
			s1.7,1.4,2.7,1.8s2.1,0.6,3.2,0.6c2.3,0,4.3-0.8,5.9-2.4c0.8-0.8,1.4-1.7,1.8-2.7s0.6-2.1,0.6-3.2V36.2H375.8z"/>
		<path class="st11" d="M394.9,69.7h-5.7V36.3h5.7V69.7z"/>
		<path class="st11" d="M434.9,36.2v33.5h-6.2l-13.4-22.9v22.9h-5.7V36.2h6.2l13.4,22.9V36.2H434.9z"/>
		<path class="st11" d="M479,69.7h-6.3l-2.6-5.7l-2.6-5.7l-6.8-15l-6.8,15h8.7l2.6,5.7h-13.9l-2.6,5.7h-6.3l15.1-33.5h6.3L479,69.7z
			"/>
		<path class="st11" d="M222.2,105.1l-8.6-21.4h4l6.5,16.3l6.1-16.3h3.9l-8,21.4H222.2z"/>
		<path class="st11" d="M245.4,105.1h-3.7V83.7h3.7V105.1z"/>
		<path class="st11" d="M268.9,98.9c0,1-0.2,1.9-0.5,2.7c-0.3,0.8-0.8,1.5-1.4,2.1s-1.3,1-2.2,1.3c-0.9,0.3-1.8,0.5-2.9,0.5
			c-1.7,0-3.2-0.3-4.5-0.8s-2.4-1.2-3.3-1.9l2.5-2.5c0.7,0.6,1.4,1.1,2.3,1.4c0.5,0.2,1,0.3,1.4,0.4s0.8,0.1,1.1,0.1
			c0.5,0,1-0.1,1.5-0.2c0.4-0.1,0.8-0.3,1.1-0.5c0.7-0.5,1-1.2,1-2c0-0.5-0.2-1-0.6-1.4c-0.3-0.3-0.7-0.6-1.1-0.8
			c-0.4-0.2-0.8-0.4-1.2-0.5s-0.8-0.2-1.1-0.3c-0.1,0-0.2-0.1-0.3-0.1c-0.1,0-0.2,0-0.2-0.1c0,0-0.1,0-0.2-0.1
			c-0.4-0.1-1-0.3-1.9-0.6c-0.8-0.3-1.6-0.7-2.4-1.3c-1.9-1.2-2.8-2.8-2.8-4.6c0-1.2,0.2-2.2,0.6-3c0.4-0.8,1-1.5,1.6-2
			s1.4-0.9,2.2-1.1s1.6-0.3,2.4-0.3c1.5,0,2.7,0.2,3.7,0.5s1.8,0.7,2.4,1c0.3,0.2,0.6,0.4,0.8,0.5c0.2,0.1,0.4,0.3,0.6,0.5l-2.6,2.6
			c-0.6-0.6-1.1-1-1.7-1.3c-0.9-0.4-1.8-0.6-2.7-0.6c-0.4,0-0.8,0.1-1.2,0.2s-0.8,0.2-1.1,0.4c-0.9,0.6-1.3,1.3-1.3,2.2
			c0,0.6,0.2,1,0.6,1.4c0.3,0.3,0.6,0.6,1.1,0.8c0.4,0.2,0.8,0.4,1.2,0.5s0.8,0.2,1.2,0.3l0.4,0.1c0.1,0,0.3,0.1,0.6,0.2
			c0.3,0.1,0.6,0.2,1,0.4c0.4,0.2,0.8,0.4,1.3,0.6s0.9,0.5,1.4,0.8C267.9,95.6,268.9,97.2,268.9,98.9z"/>
		<path class="st11" d="M294.7,83.6v12.9c0,1.2-0.2,2.4-0.7,3.5s-1.1,2-1.9,2.9c-0.8,0.8-1.8,1.5-2.9,1.9c-1.1,0.5-2.3,0.7-3.5,0.7
			s-2.4-0.2-3.5-0.7s-2-1.1-2.9-1.9c-0.8-0.8-1.5-1.8-1.9-2.9c-0.5-1.1-0.7-2.3-0.7-3.5V83.6h3.7v12.9c0,0.7,0.1,1.4,0.4,2
			s0.7,1.2,1.2,1.7s1.1,0.9,1.7,1.2c0.6,0.3,1.3,0.4,2,0.4c1.5,0,2.7-0.5,3.8-1.6c0.5-0.5,0.9-1.1,1.2-1.7s0.4-1.3,0.4-2V83.6H294.7
			z"/>
		<path class="st11" d="M324,105.1h-4l-1.7-3.7l-1.7-3.7l-4.3-9.6l-4.3,9.6h5.6l1.7,3.7h-8.9l-1.7,3.7h-4l9.7-21.4h4L324,105.1z"/>
		<path class="st11" d="M343.6,101.4v3.7h-8.4h-3.7v-3.7V83.7h3.7v17.7C335.2,101.4,343.6,101.4,343.6,101.4z"/>
		<g>
			<polygon class="st11" points="273.6,34.3 279.9,34.3 282.3,29.1 276,29.1 			"/>
		</g>
	</g>
	
		<linearGradient id="SVGID_11_" gradientUnits="userSpaceOnUse" x1="195.103" y1="-1154.9094" x2="149.6903" y2="-1226.1647" gradientTransform="matrix(1 0 0 -1 0 -1108)">
		<stop  offset="0" style="stop-color:#C55903"/>
		<stop  offset="1" style="stop-color:#D62688"/>
	</linearGradient>
	<rect x="178.9" y="22.2" class="st12" width="2.4" height="96.5"/>
	<g>
		
			<linearGradient id="SVGID_12_" gradientUnits="userSpaceOnUse" x1="158.0722" y1="1323.05" x2="22.9544" y2="1323.05" gradientTransform="matrix(1 0 0 1 0 -1252)">
			<stop  offset="0" style="stop-color:#C55903"/>
			<stop  offset="1" style="stop-color:#D62688"/>
		</linearGradient>
		<path class="st13" d="M156.2,88.5l-22.6-45.2c-2.5-4.8-6.3-8-10.6-8.4c-0.6-0.1-1-0.1-1.4-0.1h-10.5c-0.8,0-1.7,0.1-2.5,0.3
			c-3.3,0.8-6.3,3.2-8.5,6.7c-0.1,0.3-0.3,0.4-0.4,0.7L90.5,61l-9.1-18.3c-0.1-0.3-0.3-0.4-0.4-0.7c-2.2-3.6-5.1-5.9-8.5-6.7
			C71.8,35,71,34.9,70,34.9H59.3c-0.4,0-0.8,0-1.2,0.1c-4.3,0.6-8.1,3.6-10.6,8.4L24.9,88.5c-2.1,4.1-2.5,8.4-1.2,11.8
			c1.1,4,4.7,7,9.1,7h12.9c3.6,0,6.7-2.1,8.4-5.2l2-4.2c-4.5,0-22.6,0-22.6,0l0,0c-2.6,0.1-1.2-3.3-0.1-5.3l22.5-45
			c1-1.9,2.5-3.4,3.4-3.4h10.6c1,0.1,2.1,1.2,2.9,2.7l15.4,30.7c0.6,1.2,1.4,1.8,2.2,1.8c0.8,0,1.5-0.6,2.2-1.8L108,46.7
			c1-1.5,2.1-2.5,2.9-2.6l0,0h10.6l0,0c1.1,0,2.5,1.4,3.4,3.3l22.7,45.2c1,2.1,2.8,5.3-0.1,5.3c0,0-19.8,0-22.6,0l2,4.2
			c1.7,3.2,4.8,5.2,8.4,5.2h12.8c4.4,0,8-3,9.1-7C158.7,96.9,158.2,92.6,156.2,88.5z"/>
		<g>
			<g>
				
					<linearGradient id="SVGID_13_" gradientUnits="userSpaceOnUse" x1="125.371" y1="1305.9131" x2="139.8347" y2="1339.1451" gradientTransform="matrix(1 0 0 1 0 -1252)">
					<stop  offset="4.669190e-02" style="stop-color:#6D2A06"/>
					<stop  offset="0.3253" style="stop-color:#E12C06"/>
					<stop  offset="0.6584" style="stop-color:#C55903"/>
				</linearGradient>
				<path class="st14" d="M120.9,44.1h0.4C121.1,44.1,120.9,44.1,120.9,44.1z"/>
				
					<linearGradient id="SVGID_14_" gradientUnits="userSpaceOnUse" x1="125.7073" y1="1305.7667" x2="140.171" y2="1338.9988" gradientTransform="matrix(1 0 0 1 0 -1252)">
					<stop  offset="4.669190e-02" style="stop-color:#6D2A06"/>
					<stop  offset="0.3253" style="stop-color:#E12C06"/>
					<stop  offset="0.6584" style="stop-color:#C55903"/>
				</linearGradient>
				<path class="st15" d="M121.3,44.1c0.1,0,0.3,0,0.4,0h-0.1H121.3z"/>
				
					<linearGradient id="SVGID_15_" gradientUnits="userSpaceOnUse" x1="129.7556" y1="1304.0046" x2="144.2193" y2="1337.2368" gradientTransform="matrix(1 0 0 1 0 -1252)">
					<stop  offset="4.669190e-02" style="stop-color:#6D2A06"/>
					<stop  offset="0.3253" style="stop-color:#E12C06"/>
					<stop  offset="0.6584" style="stop-color:#C55903"/>
				</linearGradient>
				<path class="st16" d="M144.6,84.4c-1-3.7-0.6-4.8-0.3-5.7c0.5-1.5-0.1-4.3-0.8-5.7c-3.1-6.2-11.4-22.2-12.3-23.8
					c-2.3-4.3-7.6-5-9.5-5.1c1.1,0.1,2.4,1.4,3.3,3.3L145.5,88c0-0.3,0-0.5,0.1-0.8C145.2,86.2,144.9,85.3,144.6,84.4z"/>
			</g>
		</g>
		<g>
			
				<linearGradient id="SVGID_16_" gradientUnits="userSpaceOnUse" x1="160.8819" y1="1907.6942" x2="125.7432" y2="1911.4771" gradientTransform="matrix(1 0 0 1 0 -1810)">
				<stop  offset="4.669190e-02" style="stop-color:#6D2A06"/>
				<stop  offset="1" style="stop-color:#E12C06"/>
			</linearGradient>
			<path class="st17" d="M148.9,95.1c0.5,1.5,0.7,2.9-1.2,2.9c0,0-19.8,0-22.6,0l2,4.2c0.2,0.3,0.4,0.7,0.6,1
				c4.6,0,17.2-0.1,20.9-0.3C153,102.5,148.9,95.1,148.9,95.1z"/>
		</g>
		<g>
			<g>
				
					<linearGradient id="SVGID_17_" gradientUnits="userSpaceOnUse" x1="-3029.5862" y1="1303.9808" x2="-3015.1301" y2="1337.1953" gradientTransform="matrix(-1 0 0 1 -2978.3315 -1252)">
					<stop  offset="4.669190e-02" style="stop-color:#6D2A06"/>
					<stop  offset="0.285" style="stop-color:#E12C06"/>
					<stop  offset="0.5104" style="stop-color:#D62688"/>
				</linearGradient>
				<path class="st18" d="M36.4,84.4c1-3.7,0.6-4.8,0.3-5.7c-0.5-1.5,0.1-4.3,0.8-5.7c3.1-6.2,11.4-22.2,12.3-23.8
					c2.3-4.3,7.6-5,9.5-5.1c-1.1,0.1-2.4,1.4-3.3,3.3L35.7,88c0-0.3-0.2-0.6-0.2-0.8C35.9,86.2,36.2,85.3,36.4,84.4z"/>
			</g>
		</g>
		<g>
			
				<linearGradient id="SVGID_18_" gradientUnits="userSpaceOnUse" x1="-2998.6995" y1="1907.6559" x2="-3033.8384" y2="1911.4388" gradientTransform="matrix(-1 0 0 1 -2978.3315 -1810)">
				<stop  offset="4.669190e-02" style="stop-color:#6D2A06"/>
				<stop  offset="1" style="stop-color:#E12C06"/>
			</linearGradient>
			<path class="st19" d="M32.3,95.1c-0.5,1.5-0.4,2.8,1.4,2.8c0,0,19.6,0,22.3,0l-2,4.2c-0.2,0.3-0.4,0.7-0.6,1
				c-4.6,0-17.2-0.1-20.9-0.3C28.2,102.5,32.4,95.1,32.3,95.1z"/>
		</g>
		<g>
			
				<linearGradient id="SVGID_19_" gradientUnits="userSpaceOnUse" x1="92.3236" y1="1318.3241" x2="74.4162" y2="1290.0853" gradientTransform="matrix(1 0 0 1 0 -1252)">
				<stop  offset="4.669190e-02" style="stop-color:#6D2A06"/>
				<stop  offset="1" style="stop-color:#E12C06"/>
			</linearGradient>
			<path class="st20" d="M76.6,41.3c1.7,3.2,6.5,15.4,9.1,20.8s5.5-2.6,5.5-2.8L90.4,61l-9.1-18.3c-0.1-0.3-0.3-0.4-0.4-0.7
				c-2.2-3.6-5.1-5.9-8.5-6.7c-0.7-0.3-1.5-0.4-2.5-0.4h-0.1l0,0C69.8,34.8,75,38.1,76.6,41.3z"/>
		</g>
		
			<linearGradient id="SVGID_20_" gradientUnits="userSpaceOnUse" x1="52.5045" y1="1337.0875" x2="128.3922" y2="1337.0875" gradientTransform="matrix(1 0 0 1 0 -1252)">
			<stop  offset="0" style="stop-color:#C55903"/>
			<stop  offset="1" style="stop-color:#D62688"/>
		</linearGradient>
		<path class="st21" d="M128.4,83.7l-10.1-19.2c-1-2.3-2.8-2.3-4,0L99.2,94.7c-1,1.9-2.3,3.2-3.3,3.3H85.1c-1.1-0.1-2.5-1.5-3.3-3.3
			L66.6,64.5c-1.1-2.3-3-2.3-4.3,0l-9.9,19l8.9-8l11.9,23.3c2.2,4.3,5.5,7.3,9.2,8.3c0.8,0.3,1.7,0.3,2.5,0.3h10.7
			c0.8,0,1.7-0.1,2.5-0.3c3.7-1,7.2-3.9,9.2-8.3l11.9-23.3L128.4,83.7z"/>
	</g>
</g>
</svg>
